<svg width="500" height="500" viewBox="0 0 500 500" fill="none" xmlns="http://www.w3.org/2000/svg">
<path d="M477.533 61.73H407.66V235.22H477.533V61.73Z" fill="#E0E0E0"/>
<path d="M475.213 61.73H405.34V235.22H475.213V61.73Z" fill="#EBEBEB"/>
<path d="M472.233 65.25H408.313V231.7H472.233V65.25Z" fill="#FAFAFA"/>
<path d="M459.787 86.88H420.48V210.08H459.787V86.88Z" fill="#EBEBEB"/>
<path d="M420.48 166.48C420.393 154.97 427.293 143.74 434.887 142.13C438.513 141.37 442.36 142.44 445.747 140.36C451.787 136.65 453.707 124.6 459.787 121.03L460.067 210.08H420.48V166.48Z" fill="#E0E0E0"/>
<path d="M138.233 34.35H90.3134V109.27H138.233V34.35Z" fill="#E0E0E0"/>
<path d="M134.987 34.35H87.0734V109.27H134.987V34.35Z" fill="#FAFAFA"/>
<path d="M135 109.29H87.0534V34.29H135V109.29ZM87.0867 109.29H134.973V34.37H87.0867V109.29Z" fill="#E0E0E0"/>
<path d="M128.547 44.42H93.5134V99.2H128.547V44.42Z" fill="white"/>
<path d="M93.5133 99.56C93.2632 100.111 92.9725 100.617 92.6467 101.07C92.0867 101.96 91.3133 103.15 90.42 104.46C89.5267 105.77 88.7267 106.92 88.1333 107.74C87.8281 108.219 87.4883 108.645 87.12 109.01C87.3628 108.457 87.6518 107.953 87.98 107.51C88.54 106.62 89.3133 105.42 90.2133 104.11C91.1133 102.8 91.9067 101.64 92.5067 100.82C92.8076 100.341 93.1455 99.9184 93.5133 99.56Z" fill="#E0E0E0"/>
<path d="M128.547 99.43C128.913 99.803 129.251 100.236 129.553 100.72C130.14 101.56 130.94 102.72 131.807 104.06C132.673 105.4 133.453 106.6 134 107.5C134.32 107.956 134.604 108.466 134.847 109.02C134.479 108.651 134.141 108.218 133.84 107.73C133.253 106.89 132.453 105.73 131.58 104.38C130.707 103.03 129.933 101.84 129.387 100.94C129.069 100.486 128.788 99.9794 128.547 99.43V99.43Z" fill="#E0E0E0"/>
<path d="M128.453 44.56C128.696 44.0069 128.985 43.5028 129.313 43.06C129.873 42.17 130.647 40.97 131.54 39.67C132.433 38.37 133.233 37.21 133.833 36.38C134.134 35.8968 134.474 35.4733 134.847 35.12C134.595 35.6622 134.306 36.1648 133.987 36.62C133.427 37.51 132.653 38.71 131.753 40.01C130.853 41.31 130.053 42.48 129.46 43.31C129.159 43.7851 128.821 44.2047 128.453 44.56V44.56Z" fill="#E0E0E0"/>
<path d="M93.4133 44.7C93.0493 44.3228 92.714 43.8869 92.4133 43.4C91.82 42.56 91.02 41.4 90.1533 40.06C89.2867 38.72 88.5133 37.52 87.96 36.63C87.6415 36.1741 87.3596 35.664 87.12 35.11C87.4887 35.4741 87.8248 35.9077 88.12 36.4C88.7133 37.24 89.5133 38.4 90.38 39.75C91.2467 41.1 92.0267 42.29 92.58 43.19C92.8985 43.6394 93.1785 44.1466 93.4133 44.7V44.7Z" fill="#E0E0E0"/>
<path d="M128.453 99.2C128.448 99.1101 128.448 99.0198 128.453 98.93C128.453 98.74 128.453 98.49 128.453 98.17C128.453 97.48 128.453 96.49 128.453 95.17C128.453 92.58 128.453 88.8 128.453 84.01C128.453 74.41 128.413 60.74 128.38 44.38L128.52 44.58H93.58L93.7333 44.35C93.7333 64.45 93.7333 83.26 93.7333 99.13L93.6 98.93L118.9 99.03L126 99.08H127.88H127.913H126.06L118.98 99.14L93.6 99.24H93.4667V99.04C93.4667 83.17 93.4667 64.36 93.4667 44.26V44.03H93.62H128.56H128.693V44.23C128.693 60.65 128.64 74.36 128.627 83.99C128.627 88.76 128.593 92.52 128.587 95.1C128.587 96.37 128.587 97.34 128.587 98.02C128.587 98.34 128.587 98.58 128.587 98.76C128.587 98.94 128.453 99.2 128.453 99.2Z" fill="#E0E0E0"/>
<path d="M116.88 63.04H105.187V80.58H116.88V63.04Z" fill="#EBEBEB"/>
<path d="M74.8933 88.17H28.32V189.43H74.8933V88.17Z" fill="#E0E0E0"/>
<path d="M72.56 88.17H25.9867V189.43H72.56V88.17Z" fill="#F5F5F5"/>
<path d="M66.7734 99.13H31.7734V178.46H66.7734V99.13Z" fill="white"/>
<path d="M66.78 178.46C66.78 178.46 66.78 178.33 66.78 178.08C66.78 177.83 66.78 177.44 66.78 176.95C66.78 175.95 66.78 174.5 66.78 172.6C66.78 168.8 66.78 163.26 66.78 156.26C66.78 142.26 66.78 122.46 66.72 99.13L66.84 99.31H31.7734L31.9 99.12C31.9 129.05 31.9 156.64 31.9 178.45L31.7934 178.3L57.2734 178.38H64.3134H66.16H66.8267C66.8267 178.38 66.62 178.38 66.2067 178.38H64.38H57.36L31.82 178.46H31.72V178.3C31.72 156.49 31.72 128.9 31.72 98.97V98.78H31.8534H66.8534H66.9667V98.95C66.9667 122.33 66.9267 142.18 66.9134 156.19C66.9134 163.19 66.9134 168.7 66.88 172.5C66.88 174.37 66.88 175.82 66.88 176.81C66.88 177.29 66.88 177.66 66.88 177.92C66.88 178.18 66.78 178.46 66.78 178.46Z" fill="#E0E0E0"/>
<path d="M72.6667 88.17C72.4366 88.8142 72.1689 89.4266 71.8667 90C71.3267 91.08 70.5334 92.56 69.6801 94.15C68.8267 95.74 67.9867 97.15 67.3801 98.15C67.0686 98.7167 66.7251 99.242 66.3534 99.72C66.6166 99.1108 66.9132 98.5354 67.2401 98L69.4867 93.92L71.7267 89.84C72.0068 89.243 72.3213 88.6842 72.6667 88.17V88.17Z" fill="#E0E0E0"/>
<path d="M66.96 178.21C68.696 182.363 70.7426 186.204 73.06 189.66Z" fill="white"/>
<path d="M73.06 189.66C72.672 189.237 72.3165 188.751 72 188.21C71.1868 186.97 70.4169 185.669 69.6934 184.31C68.8467 182.72 68.1467 181.21 67.6934 180.09C67.4119 179.505 67.1749 178.874 66.9867 178.21C67.2979 178.756 67.583 179.334 67.84 179.94C68.3534 181.02 69.08 182.49 69.92 184.08C70.76 185.67 71.5667 187.08 72.1534 188.03C72.4846 188.535 72.7878 189.081 73.06 189.66V189.66Z" fill="#E0E0E0"/>
<path d="M26 189.35L32.1 178.06Z" fill="white"/>
<path d="M32.08 178.06C31.1678 180.062 30.1842 181.988 29.1333 183.83C28.1555 185.753 27.1095 187.595 26 189.35C26.9189 187.356 27.9046 185.434 28.9533 183.59C30.62 180.47 32 178 32.08 178.06Z" fill="#E0E0E0"/>
<path d="M26 88.17C27.0549 89.8546 28.0454 91.6274 28.9667 93.48C29.9464 95.2461 30.8632 97.0887 31.7133 99C30.6618 97.3136 29.6736 95.5409 28.7533 93.69C27.771 91.9244 26.8519 90.0818 26 88.17V88.17Z" fill="#E0E0E0"/>
<path d="M55.8734 115.24H44.1534V165.16H55.8734V115.24Z" fill="#E0E0E0"/>
<path d="M485.24 458.59C485.24 458.73 379.907 458.85 250.013 458.85C120.12 458.85 14.76 458.73 14.76 458.59C14.76 458.45 120.093 458.33 250.013 458.33C379.933 458.33 485.24 458.45 485.24 458.59Z" fill="#263238"/>
<path d="M130.78 146.74H431.293C432.485 146.74 433.628 147.45 434.471 148.714C435.313 149.978 435.787 151.692 435.787 153.48V439.85C435.787 443.714 434.763 447.42 432.942 450.153C431.12 452.885 428.649 454.42 426.073 454.42H135.333C132.757 454.42 130.287 452.885 128.465 450.153C126.643 447.42 125.62 443.714 125.62 439.85V154.5C125.62 152.445 126.164 150.473 127.133 149.02C128.102 147.567 129.416 146.75 130.787 146.75L130.78 146.74Z" fill="#263238"/>
<path d="M112.667 431.66H448.667V444.86C448.667 446.662 448.43 448.446 447.97 450.11C447.511 451.775 446.837 453.287 445.988 454.561C445.138 455.835 444.13 456.846 443.02 457.536C441.911 458.225 440.721 458.58 439.52 458.58H121.793C119.371 458.572 117.05 457.123 115.339 454.551C113.628 451.979 112.667 448.494 112.667 444.86V431.66Z" fill="#263238"/>
<path d="M426.593 158.97H133.94V418.79H426.593V158.97Z" fill="#F5F5F5"/>
<path d="M250.127 431.66L254.293 441.61H312.973L316.847 431.66H250.127Z" fill="#455A64"/>
<path d="M435.84 431.57H125.667V433.05H435.84V431.57Z" fill="#455A64"/>
<path d="M395.54 122.58H409.367V348C409.367 362.9 402.84 375 394.787 375H379.207V122.58H395.54Z" fill="#E0E0E0"/>
<path d="M395.54 122.58H394.48H391.353L379.207 122.63L379.273 122.53C379.273 165.09 379.333 261.36 379.38 374.93L379.207 374.67H393.42C394.087 374.67 394.707 374.67 395.333 374.62L396.28 374.53L397.207 374.26C399.674 373.45 401.934 371.589 403.713 368.9C405.474 366.253 406.838 363.072 407.713 359.57C408.603 356.114 409.086 352.453 409.14 348.75C409.14 333.92 409.14 319.47 409.14 305.48C409.14 277.48 409.14 251.34 409.14 227.74C409.14 180.56 409.2 143.59 409.22 122.53L409.28 122.62H398.967H396.34H395.453H396.34H398.967H409.28H409.347V122.72C409.347 143.78 409.387 180.72 409.42 227.93C409.42 251.53 409.42 277.68 409.42 305.67C409.42 319.67 409.42 334.097 409.42 348.95C409.366 352.716 408.874 356.438 407.967 359.95C407.064 363.525 405.662 366.767 403.853 369.46C402.03 372.217 399.715 374.127 397.187 374.96L396.227 375.23L395.26 375.33C394.593 375.42 393.973 375.33 393.327 375.38H379.033V375C379.08 261.43 379.12 165.16 379.133 122.6V122.49H379.207H391.353H394.48L395.54 122.58Z" fill="#263238"/>
<path d="M395.54 375H158.373C154.905 374.997 151.579 372.929 149.126 369.251C146.674 365.572 145.295 360.583 145.293 355.38V57.68H395.54V375Z" fill="white"/>
<path d="M395.54 375C395.54 373.16 395.48 248.81 395.393 57.7L395.54 57.92H148.127H145.333L145.507 57.66C145.507 152.26 145.507 242.33 145.507 324.21V354.53C145.466 356.99 145.717 359.441 146.247 361.77C147.058 365.216 148.502 368.249 150.411 370.521C152.32 372.792 154.618 374.209 157.04 374.61C158.62 374.81 160.247 374.7 161.847 374.73H194.613L262.073 374.78L395.593 374.95L262.16 375.12H194.647H161.8C160.187 375.12 158.593 375.2 156.953 375C154.484 374.607 152.139 373.179 150.185 370.88C148.231 368.581 146.749 365.504 145.907 362C145.36 359.621 145.1 357.115 145.14 354.6V324.23C145.14 242.35 145.14 152.23 145.14 57.68V57.42H148.147H395.56H395.707V57.64C395.6 248.79 395.54 373.14 395.54 375Z" fill="#263238"/>
<path d="M395.54 86.39C395.54 86.53 339.54 86.65 270.427 86.65C201.313 86.65 145.293 86.53 145.293 86.39C145.293 86.25 201.293 86.13 270.427 86.13C339.56 86.13 395.54 86.24 395.54 86.39Z" fill="#263238"/>
<path d="M316.667 72.22C316.667 72.36 296.793 72.48 272.293 72.48C247.793 72.48 227.92 72.36 227.92 72.22C227.92 72.08 247.787 71.96 272.293 71.96C296.8 71.96 316.667 72.07 316.667 72.22Z" fill="#0F3CA1"/>
<path d="M153.7 75.39C155.018 75.39 156.087 73.7872 156.087 71.81C156.087 69.8328 155.018 68.23 153.7 68.23C152.382 68.23 151.313 69.8328 151.313 71.81C151.313 73.7872 152.382 75.39 153.7 75.39Z" fill="#E0E0E0"/>
<path d="M161.793 75.39C163.111 75.39 164.18 73.7872 164.18 71.81C164.18 69.8328 163.111 68.23 161.793 68.23C160.475 68.23 159.407 69.8328 159.407 71.81C159.407 73.7872 160.475 75.39 161.793 75.39Z" fill="#E0E0E0"/>
<path d="M169.88 75.39C171.198 75.39 172.267 73.7872 172.267 71.81C172.267 69.8328 171.198 68.23 169.88 68.23C168.562 68.23 167.493 69.8328 167.493 71.81C167.493 73.7872 168.562 75.39 169.88 75.39Z" fill="#E0E0E0"/>
<path d="M264.193 166.59C264.193 166.74 259.233 166.85 253.113 166.85C246.993 166.85 242.033 166.74 242.033 166.59C242.033 166.44 246.993 166.33 253.113 166.33C259.233 166.33 264.193 166.45 264.193 166.59Z" fill="#263238"/>
<path d="M294.787 166.59C294.787 166.74 289.353 166.85 282.653 166.85C275.953 166.85 270.52 166.74 270.52 166.59C270.52 166.44 275.953 166.33 282.653 166.33C289.353 166.33 294.787 166.45 294.787 166.59Z" fill="#263238"/>
<path d="M293.733 183.37C293.733 183.51 282.207 183.63 267.993 183.63C253.78 183.63 242.247 183.51 242.247 183.37C242.247 183.23 253.773 183.11 267.993 183.11C282.213 183.11 293.733 183.22 293.733 183.37Z" fill="#263238"/>
<path d="M294.787 198.24C294.787 198.39 283.12 198.5 268.727 198.5C254.333 198.5 242.667 198.39 242.667 198.24C242.667 198.09 254.333 197.98 268.727 197.98C283.12 197.98 294.787 198.1 294.787 198.24Z" fill="#263238"/>
<path d="M264 214.39C264 214.53 259.273 214.65 253.453 214.65C247.633 214.65 242.9 214.53 242.9 214.39C242.9 214.25 247.62 214.13 253.453 214.13C259.287 214.13 264 214.24 264 214.39Z" fill="#263238"/>
<path d="M291.62 214.07C291.62 214.21 286.427 214.33 280.02 214.33C273.613 214.33 268.413 214.21 268.413 214.07C268.413 213.93 273.607 213.81 280.02 213.81C286.433 213.81 291.62 213.93 291.62 214.07Z" fill="#263238"/>
<path d="M291.62 230.53C291.62 230.67 280.66 230.79 267.147 230.79C253.633 230.79 242.667 230.67 242.667 230.53C242.667 230.39 253.627 230.27 267.147 230.27C280.667 230.27 291.62 230.38 291.62 230.53Z" fill="#263238"/>
<path d="M198.78 261.23C198.78 261.37 194.2 261.49 188.547 261.49C182.893 261.49 178.313 261.37 178.313 261.23C178.313 261.09 182.893 260.97 188.547 260.97C194.2 260.97 198.78 261.09 198.78 261.23Z" fill="#263238"/>
<path d="M229.587 262.18C229.587 262.32 224.293 262.44 217.773 262.44C211.253 262.44 205.953 262.32 205.953 262.18C205.953 262.04 211.247 261.92 217.773 261.92C224.3 261.92 229.587 262 229.587 262.18Z" fill="#263238"/>
<path d="M230.22 277.37C230.22 277.52 218.74 277.63 204.587 277.63C190.433 277.63 178.947 277.52 178.947 277.37C178.947 277.22 190.42 277.11 204.587 277.11C218.753 277.11 230.22 277.23 230.22 277.37Z" fill="#263238"/>
<path d="M233.387 292.88C233.387 293.02 221.007 293.14 205.747 293.14C190.487 293.14 178.1 293.02 178.1 292.88C178.1 292.74 190.473 292.62 205.747 292.62C221.02 292.62 233.387 292.74 233.387 292.88Z" fill="#263238"/>
<path d="M277.487 244.77C277.487 244.91 269.64 245.03 259.973 245.03C250.307 245.03 242.46 244.91 242.46 244.77C242.46 244.63 250.3 244.51 259.973 244.51C269.647 244.51 277.487 244.63 277.487 244.77Z" fill="#263238"/>
<path d="M294.787 244.77C290.992 245.117 287.188 245.117 283.393 244.77C287.188 244.423 290.992 244.423 294.787 244.77Z" fill="#263238"/>
<path d="M292.253 261.86C292.253 262.01 281.487 262.12 268.2 262.12C254.913 262.12 244.147 262.01 244.147 261.86C244.147 261.71 254.913 261.6 268.2 261.6C281.487 261.6 292.253 261.72 292.253 261.86Z" fill="#263238"/>
<path d="M266.093 277.69C266.093 277.83 260.8 277.95 254.273 277.95C247.747 277.95 242.46 277.83 242.46 277.69C242.46 277.55 247.747 277.43 254.273 277.43C260.8 277.43 266.093 277.54 266.093 277.69Z" fill="#263238"/>
<path d="M295.207 293.83C295.207 293.97 283.633 294.09 269.36 294.09C255.087 294.09 243.513 293.97 243.513 293.83C243.513 293.69 255.087 293.57 269.36 293.57C283.633 293.57 295.207 293.69 295.207 293.83Z" fill="#263238"/>
<path d="M297.333 278C297.333 278.15 291.667 278.26 284.667 278.26C277.667 278.26 272 278.15 272 278C272 277.85 277.667 277.74 284.667 277.74C291.667 277.74 297.333 277.86 297.333 278Z" fill="#263238"/>
<path d="M359.333 166.91C359.333 167.05 347.287 167.17 332.433 167.17C317.58 167.17 305.527 167.05 305.527 166.91C305.527 166.77 317.573 166.65 332.433 166.65C347.293 166.65 359.333 166.77 359.333 166.91Z" fill="#263238"/>
<path d="M316.733 182.1C313.15 182.447 309.556 182.447 305.973 182.1C309.556 181.753 313.15 181.753 316.733 182.1V182.1Z" fill="#263238"/>
<path d="M359.333 182.42C359.333 182.56 350.88 182.68 340.453 182.68C330.027 182.68 321.567 182.56 321.567 182.42C321.567 182.28 330.02 182.16 340.453 182.16C350.887 182.16 359.333 182.28 359.333 182.42Z" fill="#263238"/>
<path d="M356.613 197.61C356.613 197.76 345.607 197.87 332.033 197.87C318.46 197.87 307.447 197.76 307.447 197.61C307.447 197.46 318.453 197.35 332.033 197.35C345.613 197.35 356.613 197.47 356.613 197.61Z" fill="#263238"/>
<path d="M358.3 212.8C358.3 212.95 346.967 213.06 332.967 213.06C318.967 213.06 307.633 212.95 307.633 212.8C307.633 212.65 318.967 212.54 332.967 212.54C346.967 212.54 358.3 212.66 358.3 212.8Z" fill="#263238"/>
<path d="M331.08 229C331.08 229.14 325.787 229.26 319.267 229.26C312.747 229.26 307.447 229.14 307.447 229C307.447 228.86 312.74 228.74 319.267 228.74C325.793 228.74 331.08 228.8 331.08 229Z" fill="#263238"/>
<path d="M358.3 229.26C358.3 229.41 353.573 229.52 347.747 229.52C341.92 229.52 337.2 229.41 337.2 229.26C337.2 229.11 341.92 229 347.747 229C353.573 229 358.3 229.12 358.3 229.26Z" fill="#263238"/>
<path d="M230.22 124.78C230.22 124.93 218.793 125.04 204.707 125.04C190.62 125.04 179.187 124.93 179.187 124.78C179.187 124.63 190.607 124.52 204.707 124.52C218.807 124.52 230.22 124.64 230.22 124.78Z" fill="#263238"/>
<path d="M365.913 124.78C365.913 124.93 353.913 125.04 339.12 125.04C324.327 125.04 312.327 124.93 312.327 124.78C312.327 124.63 324.327 124.52 339.12 124.52C353.913 124.52 365.913 124.64 365.913 124.78Z" fill="#263238"/>
<path d="M364.493 247.48C364.493 247.56 363.667 246.86 362.093 246.11C359.865 245.084 357.511 244.825 355.207 245.35C353.622 245.708 352.087 246.448 350.66 247.54C349.039 248.851 347.537 250.471 346.193 252.36C344.727 254.3 343.273 256.5 341.593 258.53C339.887 260.729 337.887 262.356 335.727 263.3C334.608 263.731 333.445 263.837 332.3 263.61C331.2 263.358 330.13 262.862 329.127 262.14C327.29 260.71 325.51 259.124 323.793 257.39C322.261 255.866 320.572 254.731 318.793 254.03C317.236 253.467 315.629 253.281 314.033 253.48C311.71 253.787 309.464 254.885 307.467 256.69C306.06 257.98 305.393 258.95 305.353 258.89C305.497 258.63 305.658 258.392 305.833 258.18C306.308 257.535 306.819 256.953 307.36 256.44C309.048 254.804 310.939 253.694 312.92 253.179C314.9 252.664 316.93 252.752 318.887 253.44C320.718 254.129 322.46 255.271 324.04 256.82C325.74 258.521 327.503 260.077 329.32 261.48C331.252 262.968 333.478 263.359 335.587 262.58C337.673 261.666 339.607 260.098 341.26 257.98C342.913 255.98 344.373 253.8 345.86 251.86C347.247 249.944 348.796 248.31 350.467 247C352.268 245.662 354.228 244.872 356.234 244.676C358.24 244.481 360.252 244.883 362.153 245.86C362.761 246.169 363.352 246.55 363.92 247C364.122 247.128 364.315 247.289 364.493 247.48Z" fill="#0F3CA1"/>
<path d="M323.127 264.66H316.773V290.43H323.127V264.66Z" fill="#0F3CA1"/>
<path d="M350.08 264.66H343.727V290.43H350.08V264.66Z" fill="#0F3CA1"/>
<path d="M359.06 249.53H352.707V290.43H359.06V249.53Z" fill="#0F3CA1"/>
<path d="M314.907 282.31H308.553V290.98H314.907V282.31Z" fill="#0F3CA1"/>
<path d="M332.113 276.3H325.76V290.43H332.113V276.3Z" fill="#0F3CA1"/>
<path d="M341.093 273.05H334.74V290.42H341.093V273.05Z" fill="#0F3CA1"/>
<path d="M232.753 166.59H179.153V244.38H232.753V166.59Z" fill="#455A64"/>
<g opacity="0.3">
<path opacity="0.3" d="M183.307 237.73L198.133 197.7L210.267 223.28L217.633 209.69L228.6 237.73H183.307Z" fill="black"/>
</g>
<g opacity="0.3">
<path opacity="0.3" d="M214.4 185.67C217.547 191.87 212.88 198.87 208.747 194.15C205.607 188 210.273 181 214.4 185.67Z" fill="black"/>
</g>
<g opacity="0.3">
<path opacity="0.3" d="M228.6 237.94C228.594 237.834 228.594 237.726 228.6 237.62C228.6 237.39 228.6 237.09 228.6 236.72C228.6 235.89 228.6 234.72 228.6 233.22C228.6 230.13 228.6 225.67 228.547 220C228.547 208.64 228.48 192.46 228.433 173L228.653 173.32L183.367 173.38C183.307 173.46 183.847 172.66 183.62 173.01V177.41C183.62 178.88 183.62 180.34 183.62 181.8V190.46C183.62 196.18 183.62 201.767 183.62 207.22C183.62 218.12 183.62 228.42 183.62 237.89L183.393 237.56L216.14 237.73L225.38 237.82H227.827H228.46H228.687C228.62 237.83 228.553 237.83 228.487 237.82H227.88H225.473L216.287 237.91L183.393 238.08H183.173V237.74C183.173 228.27 183.173 217.97 183.173 207.07C183.173 201.617 183.173 196.03 183.173 190.31V173.06C182.947 173.39 183.48 172.58 183.433 172.66L228.72 172.72H228.94V173C228.893 192.51 228.853 208.76 228.827 220.17C228.827 225.81 228.78 230.24 228.767 233.31C228.767 234.79 228.767 235.94 228.767 236.75C228.767 237.11 228.767 237.4 228.767 237.62C228.722 237.739 228.666 237.847 228.6 237.94V237.94Z" fill="black"/>
</g>
<path d="M233.473 309.22C233.473 309.36 221.147 309.48 205.953 309.48C190.76 309.48 178.44 309.36 178.44 309.22C178.44 309.08 190.753 308.96 205.953 308.96C221.153 308.96 233.473 309.07 233.473 309.22Z" fill="#E0E0E0"/>
<path d="M297.733 308.68C297.733 308.83 285.88 308.94 271.26 308.94C256.64 308.94 244.773 308.83 244.773 308.68C244.773 308.53 256.627 308.42 271.26 308.42C285.893 308.42 297.733 308.54 297.733 308.68Z" fill="#E0E0E0"/>
<path d="M363.267 307.17C363.267 307.32 351.487 307.43 336.953 307.43C322.42 307.43 310.64 307.32 310.64 307.17C310.64 307.02 322.42 306.91 336.953 306.91C351.487 306.91 363.267 307 363.267 307.17Z" fill="#E0E0E0"/>
<path d="M233.473 322.6C233.473 322.75 221.147 322.86 205.953 322.86C190.76 322.86 178.44 322.75 178.44 322.6C178.44 322.45 190.753 322.34 205.953 322.34C221.153 322.34 233.473 322.46 233.473 322.6Z" fill="#E0E0E0"/>
<path d="M297.733 322.07C297.733 322.21 285.88 322.33 271.26 322.33C256.64 322.33 244.773 322.21 244.773 322.07C244.773 321.93 256.627 321.81 271.26 321.81C285.893 321.81 297.733 321.92 297.733 322.07Z" fill="#E0E0E0"/>
<path d="M363.267 320.56C363.267 320.7 351.487 320.82 336.953 320.82C322.42 320.82 310.667 320.7 310.667 320.56C310.667 320.42 322.447 320.3 336.98 320.3C351.513 320.3 363.267 320.42 363.267 320.56Z" fill="#E0E0E0"/>
<path d="M317.767 341.21H231.307C221.377 341.21 213.327 353.283 213.327 368.175C213.327 383.067 221.377 395.14 231.307 395.14H317.767C327.697 395.14 335.747 383.067 335.747 368.175C335.747 353.283 327.697 341.21 317.767 341.21Z" fill="#0F3CA1"/>
<path d="M312.747 394.76C313.348 396.436 313.742 398.263 313.907 400.15H316.06L325.1 399.92L325.033 400.16C325.033 400.16 326.507 389.76 326.773 386.67C327 384.12 328.047 378.02 326.773 375.33C326.54 374.861 326.214 374.513 325.843 374.334C325.471 374.155 325.072 374.153 324.7 374.33C324.439 374.442 324.205 374.66 324.022 374.96C323.84 375.26 323.717 375.631 323.667 376.03C323.667 376.03 323.56 372.43 321.833 372.37C320.107 372.31 320.047 374.37 320.047 374.37C320.047 374.37 319.573 370.25 317.653 370.29C317.285 370.346 316.937 370.566 316.654 370.923C316.371 371.28 316.167 371.756 316.067 372.29V364.51C316.068 363.748 315.875 363.014 315.529 362.456C315.182 361.899 314.707 361.561 314.2 361.51C313.942 361.498 313.686 361.563 313.445 361.701C313.205 361.84 312.985 362.049 312.799 362.316C312.612 362.583 312.464 362.903 312.361 363.258C312.258 363.612 312.203 363.994 312.2 364.38L312 382.38L309.067 376.74C308.3 375.28 306.473 376.01 306.24 377.26C306.24 377.26 305.713 378.92 306.8 381.35C307.647 383.18 312.747 394.76 312.747 394.76Z" fill="#EBEBEB"/>
<path d="M312.747 394.76C312.694 394.667 312.646 394.57 312.6 394.47L312.207 393.61L310.7 390.24L308.327 384.9L306.84 381.56C306.545 380.954 306.32 380.278 306.173 379.56C306.004 378.797 306.004 377.973 306.173 377.21V377.21C306.297 376.744 306.536 376.368 306.84 376.16C307.132 375.94 307.453 375.817 307.78 375.8C308.122 375.776 308.462 375.897 308.76 376.15C308.835 376.215 308.906 376.289 308.973 376.37L309.16 376.66L309.467 377.26L312.087 382.26L311.933 382.34C311.973 377.29 312.013 371.75 312.06 365.85V364.74C312.052 364.358 312.07 363.976 312.113 363.6C312.22 362.91 312.483 362.297 312.857 361.865C313.231 361.433 313.693 361.209 314.165 361.232C314.637 361.254 315.089 361.521 315.445 361.988C315.8 362.454 316.036 363.091 316.113 363.79C316.15 364.188 316.163 364.589 316.153 364.99V372.17H315.947C316.09 371.449 316.409 370.835 316.84 370.45C317.021 370.293 317.216 370.179 317.42 370.11C317.528 370.08 317.639 370.08 317.747 370.11C317.85 370.115 317.953 370.135 318.053 370.17C318.464 370.301 318.838 370.623 319.12 371.09C319.645 372.007 319.995 373.12 320.133 374.31H319.927C319.951 373.911 320.046 373.529 320.202 373.204C320.358 372.879 320.569 372.622 320.813 372.46C321.053 372.313 321.308 372.229 321.567 372.21C321.693 372.185 321.821 372.185 321.947 372.21H322.14L322.327 372.29C322.566 372.424 322.784 372.631 322.968 372.898C323.152 373.164 323.296 373.485 323.393 373.84C323.596 374.512 323.716 375.234 323.747 375.97H323.547C323.599 375.581 323.715 375.218 323.885 374.914C324.055 374.61 324.274 374.375 324.52 374.23C325.001 373.938 325.539 373.938 326.02 374.23C326.255 374.384 326.467 374.605 326.647 374.88C326.812 375.16 326.951 375.473 327.06 375.81C327.256 376.473 327.379 377.178 327.427 377.9C327.49 380.635 327.318 383.371 326.913 386.04C326.673 388.64 326.327 391.11 326.02 393.46L325.093 400.15L324.947 400.08L325.013 399.84L325.087 400L316.053 400.2L316.1 400.12V400.19H313.86V400.13C313.739 398.755 313.497 397.41 313.14 396.13C313.02 395.68 312.913 395.35 312.84 395.13C312.802 395.02 312.769 394.906 312.74 394.79C312.905 395.212 313.052 395.65 313.18 396.1C313.556 397.399 313.814 398.768 313.947 400.17L313.9 400.11H316.053L316.007 400.19V400.12H316.053L325.093 399.84H325.207L325.16 400C325.16 400.08 325.12 400.15 325.1 400.24L324.953 400.17C325.24 398.07 325.54 395.83 325.86 393.48C326.18 391.13 326.527 388.67 326.74 386.07C327.133 383.426 327.301 380.718 327.24 378.01C327.192 377.321 327.075 376.647 326.893 376.01C326.791 375.704 326.663 375.418 326.513 375.16C326.35 374.919 326.158 374.725 325.947 374.59C325.52 374.326 325.04 374.326 324.613 374.59C324.398 374.718 324.207 374.925 324.059 375.193C323.912 375.46 323.811 375.779 323.767 376.12L323.62 377.12L323.567 376.05C323.536 375.358 323.42 374.68 323.227 374.05C323.142 373.734 323.014 373.447 322.851 373.209C322.688 372.972 322.493 372.788 322.28 372.67C321.839 372.488 321.37 372.53 320.947 372.79C320.736 372.925 320.553 373.144 320.418 373.422C320.283 373.7 320.201 374.027 320.18 374.37L320.113 375.37L319.973 374.37C319.841 373.24 319.51 372.183 319.013 371.31C318.775 370.883 318.444 370.595 318.079 370.497C317.713 370.398 317.336 370.495 317.013 370.77C316.627 371.119 316.342 371.672 316.213 372.32L316.013 373.27V365C316.023 364.619 316.012 364.238 315.98 363.86C315.934 363.504 315.843 363.165 315.713 362.86C315.588 362.547 315.422 362.275 315.225 362.061C315.028 361.847 314.804 361.695 314.567 361.614C314.33 361.532 314.084 361.524 313.844 361.589C313.605 361.653 313.377 361.79 313.173 361.99C312.769 362.386 312.484 363.003 312.38 363.71C312.338 364.066 312.32 364.428 312.327 364.79C312.327 365.16 312.327 365.53 312.327 365.9C312.273 371.79 312.22 377.33 312.173 382.39V382.76L312.013 382.47C311.107 380.72 310.24 379.03 309.407 377.47C309.231 377.057 309.005 376.697 308.74 376.41C308.468 376.18 308.159 376.07 307.847 376.09C307.54 376.106 307.24 376.222 306.967 376.43C306.704 376.605 306.498 376.929 306.393 377.33V377.33C306.237 378.044 306.237 378.816 306.393 379.53C306.532 380.224 306.746 380.88 307.027 381.47L308.493 384.83L310.847 390.2C311.48 391.67 311.973 392.81 312.32 393.59L312.693 394.48L312.747 394.76Z" fill="#263238"/>
<path d="M325.22 399.94H313.9C313.042 399.94 312.347 400.983 312.347 402.27V402.44C312.347 403.727 313.042 404.77 313.9 404.77H325.22C326.078 404.77 326.773 403.727 326.773 402.44V402.27C326.773 400.983 326.078 399.94 325.22 399.94Z" fill="#EBEBEB"/>
<path d="M325.22 404.78C325.22 404.78 325.333 404.78 325.54 404.69C325.845 404.586 326.12 404.341 326.327 403.99C326.474 403.737 326.586 403.441 326.653 403.12C326.723 402.739 326.739 402.341 326.7 401.95C326.649 401.475 326.498 401.037 326.268 400.701C326.039 400.364 325.744 400.147 325.427 400.08H313.907C313.712 400.078 313.519 400.136 313.34 400.249C313.16 400.361 312.998 400.527 312.862 400.736C312.727 400.946 312.621 401.194 312.55 401.466C312.48 401.738 312.447 402.028 312.453 402.32C312.439 402.697 312.492 403.074 312.607 403.41C312.719 403.737 312.884 404.017 313.086 404.225C313.289 404.432 313.523 404.561 313.767 404.6C314.26 404.6 314.773 404.6 315.253 404.6H320.44L323.933 404.65H324.887H325.22C325.109 404.663 324.998 404.663 324.887 404.65H323.933L320.44 404.7H315.253C314.76 404.7 314.273 404.7 313.747 404.7C313.306 404.642 312.898 404.33 312.607 403.831C312.316 403.331 312.165 402.682 312.186 402.02C312.206 401.357 312.397 400.732 312.718 400.276C313.038 399.819 313.464 399.566 313.907 399.57C318.413 399.57 322.48 399.57 325.447 399.64C325.792 399.715 326.113 399.956 326.359 400.328C326.605 400.699 326.765 401.181 326.813 401.7C326.852 402.118 326.832 402.544 326.753 402.95C326.675 403.286 326.55 403.593 326.387 403.85C326.164 404.205 325.872 404.446 325.553 404.54C325.452 404.646 325.339 404.728 325.22 404.78V404.78Z" fill="#263238"/>
<path d="M316 378.86C315.858 376.532 315.858 374.188 316 371.86C316.142 374.188 316.142 376.532 316 378.86V378.86Z" fill="#263238"/>
<path d="M320 378.38C319.858 376.998 319.858 375.592 320 374.21C320.133 375.593 320.133 376.997 320 378.38V378.38Z" fill="#263238"/>
<path d="M323.66 380.13C323.527 378.751 323.527 377.349 323.66 375.97C323.802 377.348 323.802 378.752 323.66 380.13V380.13Z" fill="#263238"/>
<path d="M311.333 361.12C310.57 360.713 309.832 360.208 309.127 359.61C308.39 359.103 307.683 358.504 307.013 357.82C307.777 358.227 308.515 358.732 309.22 359.33C309.956 359.837 310.663 360.436 311.333 361.12V361.12Z" fill="#263238"/>
<path d="M313.333 359.47C313.076 357.96 312.882 356.427 312.753 354.88C312.56 353.351 312.434 351.804 312.373 350.25C312.639 351.755 312.835 353.285 312.96 354.83C313.157 356.362 313.282 357.912 313.333 359.47V359.47Z" fill="#263238"/>
<path d="M315.747 359.89C316.131 358.773 316.577 357.706 317.08 356.7C317.535 355.639 318.048 354.635 318.613 353.7C318.228 354.82 317.782 355.89 317.28 356.9C316.824 357.957 316.311 358.957 315.747 359.89V359.89Z" fill="#263238"/>
<path d="M69.2066 458.59H25.64C25.1361 458.59 24.6528 458.29 24.2965 457.755C23.9402 457.221 23.74 456.496 23.74 455.74L23.74 411.05C23.74 410.366 23.9212 409.709 24.2438 409.226C24.5663 408.742 25.0038 408.47 25.46 408.47H69.2066C70.3011 408.47 71.3507 409.122 72.1246 410.283C72.8985 411.444 73.3333 413.018 73.3333 414.66V452.4C73.3333 454.042 72.8985 455.616 72.1246 456.777C71.3507 457.938 70.3011 458.59 69.2066 458.59V458.59Z" fill="#263238"/>
<g opacity="0.4">
<path opacity="0.4" d="M69.2066 458.59H25.64C25.1361 458.59 24.6528 458.29 24.2965 457.755C23.9402 457.221 23.74 456.496 23.74 455.74L23.74 411.05C23.74 410.366 23.9212 409.709 24.2438 409.226C24.5663 408.742 25.0038 408.47 25.46 408.47H69.2066C70.3011 408.47 71.3507 409.122 72.1246 410.283C72.8985 411.444 73.3333 413.018 73.3333 414.66V452.4C73.3333 454.042 72.8985 455.616 72.1246 456.777C71.3507 457.938 70.3011 458.59 69.2066 458.59V458.59Z" fill="black"/>
</g>
<path d="M78.7733 458.59H31.14L31.14 408.46H77.88C78.2503 408.46 78.617 408.569 78.9592 408.782C79.3013 408.995 79.6122 409.306 79.874 409.699C80.1359 410.092 80.3436 410.558 80.4853 411.071C80.6271 411.584 80.7 412.134 80.7 412.69V455.69C80.7009 456.07 80.6517 456.447 80.5553 456.799C80.4588 457.151 80.3171 457.471 80.1381 457.74C79.9591 458.009 79.7464 458.223 79.5122 458.369C79.278 458.515 79.0269 458.59 78.7733 458.59V458.59Z" fill="#263238"/>
<path d="M31.08 458.84C30.9933 458.84 30.9266 447.72 30.9266 434.01C30.9266 420.3 30.9933 409.17 31.08 409.17C31.1666 409.17 31.24 420.29 31.24 434.01C31.24 447.73 31.1733 458.84 31.08 458.84Z" fill="#263238"/>
<path d="M43.0667 407.84C43.0667 407.84 43.1067 407.73 43.2 407.55C43.2933 407.37 43.44 407.1 43.6467 406.79C44.2226 405.89 44.8594 405.082 45.5467 404.38C47.8246 402.001 50.5513 400.781 53.3258 400.9C56.1004 401.019 58.7763 402.47 60.96 405.04C61.6188 405.799 62.2241 406.657 62.7667 407.6C62.96 407.93 63.0867 408.22 63.18 408.4C63.2733 408.58 63.3133 408.69 63.3067 408.7C62.5413 407.473 61.712 406.34 60.8267 405.31C58.6531 402.869 56.0295 401.496 53.3154 401.38C50.6012 401.263 47.9296 402.409 45.6667 404.66C44.7431 405.611 43.8735 406.675 43.0667 407.84V407.84Z" fill="#263238"/>
<path d="M30.78 415.63C30.8016 415.717 30.8151 415.808 30.82 415.9C30.82 416.1 30.8733 416.36 30.9133 416.69C30.9533 417.02 30.9867 417.47 31.0533 417.97C31.12 418.47 31.22 419.06 31.3133 419.7C31.9332 423.35 32.9393 426.828 34.2933 430C36.3029 434.713 39.0111 438.666 42.2066 441.55C46.1566 445.002 50.6701 446.734 55.24 446.55C59.8094 446.433 64.2783 444.52 68.2 441C71.3781 438.076 74.1399 434.239 76.3266 429.71C77.7971 426.654 79.0086 423.335 79.9333 419.83C80.2466 418.58 80.48 417.6 80.6 416.93L80.7733 416.17C80.7897 416.08 80.8121 415.993 80.84 415.91C80.8366 416.003 80.8231 416.094 80.8 416.18L80.6666 416.96C80.5466 417.64 80.3333 418.63 80 419.89C79.1153 423.44 77.9253 426.802 76.46 429.89C74.2788 434.491 71.504 438.388 68.3 441.35C64.3453 444.951 59.8255 446.918 55.2 447.05C50.5712 447.234 46.0014 445.459 42.0133 441.93C38.7895 438.994 36.0663 434.971 34.06 430.18C32.7106 426.966 31.7261 423.438 31.1467 419.74L30.9666 418C30.9066 417.49 30.88 417.05 30.8466 416.7C30.8133 416.35 30.8066 416.11 30.7866 415.91C30.7785 415.817 30.7763 415.723 30.78 415.63V415.63Z" fill="#455A64"/>
<path d="M472.553 267.6C465.887 272.77 460.787 281.67 457.12 291.48C453.453 301.29 451.12 312.04 448.74 322.72L446.667 377.81C454.407 358.05 460.627 334.81 462.307 312.03L457.153 311.34C460.607 310.55 463.507 306.79 465.353 302.34C467.2 297.89 468.147 292.75 469.073 287.69L462.787 289.09C467.762 284.074 471.259 276.379 472.553 267.6Z" fill="#455A64"/>
<g opacity="0.3">
<path opacity="0.3" d="M472.553 267.6C465.887 272.77 460.787 281.67 457.12 291.48C453.453 301.29 451.12 312.04 448.74 322.72L446.667 377.81C454.407 358.05 460.627 334.81 462.307 312.03L457.153 311.34C460.607 310.55 463.507 306.79 465.353 302.34C467.2 297.89 468.147 292.75 469.073 287.69L462.787 289.09C467.762 284.074 471.259 276.379 472.553 267.6Z" fill="black"/>
</g>
<path d="M445.547 390.72C445.547 390.72 428.733 360.54 428.927 331.72H435.72C435.72 331.72 428.34 324.45 428.927 320.37C429.513 316.29 429.7 300.87 429.7 300.87L435.913 303.2C435.913 303.2 431.247 299.71 430.673 294.2C430.1 288.69 432.007 263.06 432.007 263.06C432.007 263.06 439.6 275 441.927 287.19C444.253 299.38 450.367 313.68 448.593 350.93C446.82 388.18 445.547 390.72 445.547 390.72Z" fill="#455A64"/>
<path d="M454.067 393.57C454.067 393.57 472.28 375.37 476.327 352.14L470.867 349.91C470.867 349.91 477.86 346.48 478 343C478.14 339.52 480.213 327.06 480.213 327.06L474.88 326.9C474.88 326.9 479.133 325.62 480.407 321.36C481.68 317.1 483.853 295.88 483.853 295.88C483.853 295.88 476 303 472.373 312.07C468.747 321.14 461.707 330.6 457.707 361.14C453.707 391.68 454.067 393.57 454.067 393.57Z" fill="#455A64"/>
<path d="M436.62 289.35C436.648 289.454 436.671 289.561 436.687 289.67C436.72 289.9 436.773 290.21 436.833 290.59L437.367 294.17C437.607 295.73 437.873 297.64 438.173 299.86C438.473 302.08 438.84 304.6 439.16 307.4C439.88 313 440.647 319.69 441.427 327.13C442.207 334.57 442.94 342.79 443.613 351.43C444.287 360.07 444.787 368.32 445.18 375.84C445.573 383.36 445.847 390.13 445.973 395.84C446.067 398.69 446.113 401.27 446.16 403.53C446.207 405.79 446.233 407.74 446.24 409.34C446.247 410.94 446.24 412.13 446.24 413.01C446.24 413.4 446.24 413.72 446.24 413.96C446.25 414.069 446.25 414.181 446.24 414.29C446.236 414.18 446.236 414.07 446.24 413.96C446.24 413.72 446.24 413.4 446.207 413.01C446.207 412.14 446.16 410.91 446.12 409.34C446.08 407.77 446.047 405.8 445.98 403.54C445.913 401.28 445.853 398.71 445.747 395.86C445.567 390.17 445.26 383.4 444.873 375.86C444.487 368.32 443.94 360.1 443.287 351.47C442.633 342.84 441.867 334.63 441.127 327.19C440.387 319.75 439.627 313.05 438.933 307.45C438.607 304.64 438.267 302.12 437.993 299.89C437.72 297.66 437.467 295.76 437.253 294.2C437.04 292.64 436.893 291.45 436.78 290.6C436.733 290.21 436.693 289.9 436.667 289.66C436.64 289.42 436.62 289.35 436.62 289.35Z" fill="#263238"/>
<path d="M443.213 409.2C443.213 409.2 427.827 383.02 423.053 367.2L426.653 364.89C424.04 365.54 421.367 363.89 419.32 361.29C417.273 358.69 415.8 355.37 414.34 352.05L419.093 350.85C414.729 348.979 411.012 344.661 408.713 338.79C414.32 340.17 419.38 344.79 423.573 350.56C426.89 355.347 429.903 360.587 432.573 366.21C433.918 368.91 435.088 371.797 436.067 374.83C438.667 382.84 443.22 399.59 443.213 409.2Z" fill="#455A64"/>
<path d="M476.567 311.14C476.554 311.235 476.531 311.326 476.5 311.41L476.267 312.17C476.04 312.87 475.727 313.84 475.333 315.08C474.507 317.59 473.333 321.25 471.927 325.79C469.1 334.86 465.373 347.53 461.693 361.79C458.013 376.05 455.1 389.19 453.12 398.79C452.133 403.57 451.353 407.45 450.833 410.14C450.573 411.46 450.373 412.49 450.22 413.24C450.153 413.56 450.1 413.83 450.053 414.04C450.038 414.133 450.015 414.224 449.987 414.31C449.979 414.214 449.979 414.116 449.987 414.02L450.12 413.21L450.673 410.09C451.153 407.38 451.893 403.48 452.853 398.68C454.773 389.08 457.66 375.91 461.34 361.63C465.02 347.35 468.787 334.71 471.673 325.63C473.113 321.11 474.34 317.47 475.173 314.99C475.6 313.77 475.933 312.81 476.167 312.12C476.28 311.82 476.367 311.58 476.433 311.38C476.474 311.296 476.519 311.216 476.567 311.14V311.14Z" fill="#263238"/>
<path d="M444.52 420.42C444.476 420.268 444.449 420.106 444.44 419.94C444.4 419.57 444.347 419.11 444.287 418.55C444.167 417.35 443.967 415.6 443.68 413.46C443.393 411.32 443.013 408.79 442.507 406.01C442 403.23 441.347 400.21 440.567 397.09C439.787 393.97 438.927 391.09 438.093 388.48C437.26 385.87 436.427 383.6 435.693 381.71C434.96 379.82 434.36 378.32 433.9 377.3L433.407 376.1C433.293 375.82 433.24 375.67 433.253 375.66C433.332 375.774 433.402 375.901 433.46 376.04L434.013 377.18C434.493 378.18 435.14 379.66 435.9 381.53C436.66 383.4 437.513 385.68 438.38 388.27C439.247 390.86 440.1 393.78 440.893 396.91C441.687 400.04 442.307 403.09 442.813 405.91C443.32 408.73 443.673 411.27 443.927 413.43C444.18 415.59 444.34 417.34 444.42 418.56L444.507 419.96C444.522 420.112 444.526 420.266 444.52 420.42Z" fill="#263238"/>
<path d="M464.82 414.27H431.147V424.57H464.82V414.27Z" fill="#0F3CA1"/>
<path d="M434.353 424.57L438 459.22H458.34L461.74 424.57H434.353Z" fill="#0F3CA1"/>
<path d="M462.753 424.57C462.753 424.71 456.38 424.83 448.527 424.83C440.673 424.83 434.3 424.71 434.3 424.57C434.3 424.43 440.667 424.31 448.527 424.31C456.387 424.31 462.753 424.42 462.753 424.57Z" fill="#263238"/>
<path d="M33.7333 355.61L32.7866 283.36C32.7291 278.943 33.2588 274.554 34.3449 270.448C35.431 266.342 37.0516 262.601 39.1122 259.445C41.1728 256.289 43.632 253.781 46.3462 252.066C49.0603 250.352 51.975 249.466 54.92 249.46V249.46C60.7851 249.447 66.4148 252.921 70.5758 259.121C74.7368 265.321 77.09 273.742 77.12 282.54L77.3667 355.61L33.7333 358.41" fill="#455A64"/>
<path d="M33.7333 367.94H101.613C101.613 361.13 98.5533 356 94.0133 356L33.7333 355.61V367.94Z" fill="#455A64"/>
<path d="M89.88 458.59H94.6467L94.6467 367.94H89.88V458.59Z" fill="#455A64"/>
<path d="M39.1133 458.59H43.88L43.88 367.94H39.1133L39.1133 458.59Z" fill="#455A64"/>
<path d="M39.2733 356C39.2733 355.87 51.9 355.77 67.4733 355.77C83.0466 355.77 95.68 355.87 95.68 356C95.68 356.13 83.0533 356.24 67.4733 356.24C51.8933 356.24 39.2733 356.13 39.2733 356Z" fill="#263238"/>
<path d="M34.88 368C34.88 367.87 49.72 367.77 68.02 367.77C86.32 367.77 101.167 367.87 101.167 368C101.167 368.13 86.3333 368.24 68.02 368.24C49.7067 368.24 34.88 368.11 34.88 368Z" fill="#263238"/>
<path d="M38.5066 262.33C38.5933 262.33 38.66 282.95 38.66 308.39C38.66 333.83 38.5933 354.45 38.5066 354.45C38.4199 354.45 38.3466 333.83 38.3466 308.39C38.3466 282.95 38.4133 262.33 38.5066 262.33Z" fill="#263238"/>
<path d="M79.1933 315.06C79.1933 315.06 117.393 314.82 120.42 315.06C125.8 315.5 129.413 324.52 130.133 329.19C130.853 333.86 147.547 405.87 147.547 405.87L134.573 418.45L117.173 359.56L108.413 336.71L60.7733 349.2L79.1933 315.06Z" fill="#936760"/>
<path d="M108.667 334.6C108.667 334.6 115.72 334.6 119.527 343.06C121.767 348.06 120.98 356.92 121.027 363.63C121.087 372.77 119.5 443.63 119.5 443.63C115.007 448.42 109.987 448.98 104.5 445.76L100.62 367.32L101.62 355.61L75.5666 356.48C75.5666 356.48 70.9 343.48 77.3733 333.12C78.2 331.79 108.667 334.6 108.667 334.6Z" fill="#936760"/>
<path d="M111.947 335H112.147L112.72 335.14C113.452 335.375 114.16 335.751 114.827 336.26C115.88 337.074 116.835 338.145 117.653 339.43C118.738 341.135 119.616 343.111 120.247 345.27C121.004 347.889 121.445 350.689 121.547 353.54C121.65 356.796 121.59 360.058 121.367 363.3C121.16 366.72 121.053 370.3 120.967 374.03C120.88 377.76 120.793 381.62 120.707 385.58C120.387 401.39 120.1 415.71 119.893 426.1C119.78 431.27 119.693 435.45 119.627 438.38C119.587 439.81 119.56 440.93 119.54 441.72C119.54 442.08 119.54 442.37 119.507 442.59C119.515 442.69 119.515 442.79 119.507 442.89C119.5 442.79 119.5 442.69 119.507 442.59C119.507 442.37 119.507 442.08 119.507 441.72C119.507 440.92 119.507 439.81 119.507 438.38C119.547 435.45 119.6 431.26 119.667 426.09C119.827 415.72 120.06 401.39 120.393 385.56C120.48 381.61 120.567 377.75 120.653 374.02C120.74 370.29 120.867 366.68 121.08 363.26C121.308 360.042 121.377 356.803 121.287 353.57C121.195 350.758 120.773 347.992 120.04 345.4C119.429 343.269 118.579 341.31 117.527 339.61C116.728 338.329 115.796 337.251 114.767 336.42C113.878 335.741 112.928 335.263 111.947 335V335Z" fill="#6F4C47"/>
<path d="M119.487 442.9V444.34C119.487 444.34 135.84 453.9 136.04 458.54L103.707 458.77L104.093 442.63C108.927 445.93 113.96 446.27 119.487 442.9Z" fill="#0F3CA1"/>
<path d="M103.72 458.77L103.813 454.89L134.773 456.08C134.773 456.08 136.213 457.01 136.053 458.54L103.72 458.77Z" fill="#E0E0E0"/>
<path d="M146.913 402.87L147.28 404.2C147.28 404.2 164.833 404.06 166.16 408.25L136.16 426.35L132.553 411.13C137.84 411.54 142.607 409.07 146.913 402.87Z" fill="#0F3CA1"/>
<path d="M136.16 426.35L135.287 422.69L164.36 406.69C164.36 406.69 165.933 406.76 166.16 408.26L136.16 426.35Z" fill="#E0E0E0"/>
<path d="M148.5 409.73C148.46 409.73 148.307 409.47 148.18 408.92C148.017 408.189 147.978 407.409 148.067 406.65C148.152 405.888 148.357 405.168 148.667 404.55C148.907 404.09 149.113 403.9 149.147 403.94C148.822 404.818 148.576 405.756 148.413 406.73C148.352 407.731 148.381 408.74 148.5 409.73V409.73Z" fill="#263238"/>
<path d="M146.78 410.17C146.473 409.202 146.372 408.115 146.491 407.057C146.611 406 146.944 405.023 147.447 404.26C147.205 405.201 147 406.163 146.833 407.14C146.775 408.148 146.757 409.159 146.78 410.17V410.17Z" fill="#263238"/>
<path d="M151.107 409.4C150.875 409.109 150.687 408.747 150.556 408.338C150.425 407.929 150.354 407.483 150.347 407.03C150.281 406.588 150.277 406.13 150.336 405.686C150.394 405.242 150.514 404.821 150.687 404.45C150.787 404.5 150.567 405.6 150.687 406.96C150.807 408.32 151.193 409.32 151.107 409.4Z" fill="#263238"/>
<path d="M149.333 404.33C149.333 404.38 148.88 404.05 148.44 403.12C148.192 402.581 147.982 402.004 147.813 401.4C147.713 401.06 147.62 400.71 147.527 400.34C147.467 400.138 147.423 399.926 147.393 399.71C147.376 399.569 147.38 399.425 147.407 399.287C147.434 399.15 147.482 399.024 147.547 398.92C147.621 398.807 147.719 398.735 147.824 398.715C147.929 398.695 148.036 398.728 148.127 398.81C148.266 398.926 148.386 399.087 148.48 399.28C148.639 399.59 148.776 399.925 148.887 400.28C149.079 400.881 149.201 401.527 149.247 402.19C149.324 402.792 149.28 403.416 149.12 403.98C149.067 403.98 149.12 403.29 149.007 402.24C148.927 401.631 148.79 401.041 148.6 400.49C148.491 400.166 148.359 399.861 148.207 399.58C148.067 399.28 147.853 399.11 147.793 399.26C147.733 399.41 147.74 399.76 147.847 400.14L148.107 401.2C148.255 401.788 148.435 402.357 148.647 402.9C148.993 403.84 149.333 404.26 149.333 404.33Z" fill="#263238"/>
<path d="M149.493 404.07C149.493 404.07 149.493 404.18 149.373 404.33L149.307 404.44V404.27C149.258 403.601 149.285 402.925 149.387 402.27C149.464 401.747 149.578 401.237 149.727 400.75C149.812 400.475 149.908 400.208 150.013 399.95C150.071 399.787 150.15 399.644 150.247 399.53C150.307 399.455 150.378 399.402 150.454 399.374C150.531 399.347 150.61 399.345 150.687 399.37C150.785 399.414 150.871 399.505 150.931 399.63C150.992 399.755 151.023 399.906 151.02 400.06C151.015 400.27 150.992 400.478 150.953 400.68C150.895 401.039 150.817 401.39 150.72 401.73C150.549 402.295 150.324 402.821 150.053 403.29C149.587 404.09 149.187 404.39 149.167 404.34C149.147 404.29 149.467 403.88 149.833 403.07C150.06 402.596 150.248 402.082 150.393 401.54C150.474 401.213 150.541 400.879 150.593 400.54C150.66 400.19 150.647 399.83 150.593 399.86C150.407 399.76 150.167 400.51 150.013 400.94C149.859 401.39 149.737 401.862 149.647 402.35C149.528 402.985 149.445 403.634 149.4 404.29L149.313 404.23C149.42 404.09 149.48 404.05 149.493 404.07Z" fill="#263238"/>
<path d="M119.213 449.86C119.167 449.86 119.14 449.49 119.213 448.92C119.326 448.183 119.555 447.497 119.88 446.92C120.215 446.336 120.641 445.886 121.12 445.61C121.487 445.4 121.733 445.4 121.74 445.46C121.157 445.954 120.62 446.559 120.14 447.26C119.757 448.062 119.445 448.936 119.213 449.86V449.86Z" fill="#263238"/>
<path d="M117.593 448.89C117.618 447.802 117.921 446.771 118.44 446.01C118.871 445.139 119.512 444.554 120.227 444.38C119.693 445.003 119.184 445.671 118.7 446.38C118.299 447.183 117.929 448.022 117.593 448.89V448.89Z" fill="#263238"/>
<path d="M121.547 451.63C121.454 451.198 121.422 450.743 121.453 450.292C121.484 449.841 121.577 449.404 121.727 449.01C122.14 447.62 122.88 446.96 122.92 447.08C122.96 447.2 122.413 447.97 122.047 449.23C121.68 450.49 121.647 451.63 121.547 451.63Z" fill="#263238"/>
<path d="M121.793 445.91C121.564 445.399 121.446 444.795 121.453 444.18C121.429 443.512 121.452 442.841 121.52 442.18C121.553 441.81 121.6 441.43 121.647 441.05C121.67 440.833 121.706 440.619 121.753 440.41C121.788 440.276 121.842 440.156 121.913 440.058C121.983 439.961 122.068 439.89 122.16 439.85C122.264 439.814 122.372 439.831 122.469 439.898C122.565 439.965 122.644 440.078 122.693 440.22C122.773 440.428 122.819 440.661 122.827 440.9C122.857 441.292 122.857 441.688 122.827 442.08C122.781 442.743 122.66 443.389 122.467 443.99C122.133 444.99 121.76 445.46 121.733 445.42C121.707 445.38 121.987 444.84 122.247 443.84C122.391 443.261 122.481 442.656 122.513 442.04C122.536 441.678 122.536 441.313 122.513 440.95C122.513 440.59 122.373 440.28 122.273 440.35C122.173 440.42 122.053 440.74 122.007 441.14C121.96 441.54 121.907 441.89 121.86 442.25C121.785 442.868 121.741 443.493 121.727 444.12C121.693 445.24 121.847 445.88 121.793 445.91Z" fill="#263238"/>
<path d="M122.033 445.82C122.033 445.82 121.973 445.89 121.84 445.95H121.74L121.787 445.79C121.981 445.167 122.244 444.599 122.567 444.11C122.818 443.738 123.093 443.403 123.387 443.11C123.557 442.946 123.733 442.796 123.913 442.66C124.019 442.573 124.134 442.512 124.253 442.48C124.331 442.466 124.41 442.478 124.485 442.514C124.56 442.55 124.629 442.61 124.687 442.69C124.755 442.805 124.796 442.951 124.803 443.105C124.81 443.258 124.783 443.411 124.727 443.54C124.653 443.718 124.564 443.88 124.46 444.02C124.286 444.282 124.096 444.519 123.893 444.73C123.551 445.085 123.176 445.361 122.78 445.55C122.428 445.771 122.042 445.837 121.667 445.74C121.667 445.66 122.08 445.59 122.7 445.2C123.058 444.977 123.396 444.688 123.707 444.34C123.889 444.133 124.06 443.906 124.22 443.66C124.4 443.42 124.513 443.1 124.44 443.06C124.313 442.83 123.853 443.28 123.567 443.53C123.282 443.801 123.012 444.105 122.76 444.44C122.441 444.891 122.147 445.379 121.88 445.9L121.827 445.78C121.96 445.78 122 445.79 122.033 445.82Z" fill="#263238"/>
<path d="M122.487 281L128.32 282.41L132.113 290.28L131.007 296.28L130.34 296.62L130.48 298.87C130.511 299.357 130.445 299.846 130.29 300.276C130.136 300.707 129.901 301.06 129.613 301.29L126.593 293.44L127.84 301.44C127.495 301.56 127.138 301.576 126.788 301.487C126.439 301.398 126.106 301.205 125.807 300.92C124.52 299.92 123.14 291.06 123.14 291.06L121.14 289.17L123.14 299.05C122.913 299.377 122.643 299.629 122.346 299.788C122.049 299.946 121.734 300.008 121.42 299.97C120.307 299.88 118.033 290.92 118.033 290.92L87.66 297.3L87.5933 291.41L94.9667 273.1L122.487 281Z" fill="#936760"/>
<path d="M56.58 207.5C54.9614 206.547 53.5267 205.004 52.4058 203.01C51.2848 201.016 50.513 198.634 50.16 196.08C49.88 193.92 49.9 191.67 49.4933 189.57C48.8667 186.57 47.3133 183.96 47.2333 180.8C47.1867 178.71 47.8067 176.71 47.9 174.62C47.9933 172.53 47.6733 170.62 47.6467 168.57C47.641 165.988 48.1442 163.46 49.0931 161.306C50.042 159.151 51.3943 157.465 52.98 156.46L61.38 151.35L74.3267 159.27C74.3267 159.27 81.66 169.99 79.5733 192.05L56.58 207.5Z" fill="#0F3CA1"/>
<path d="M78.18 194C78.4223 193.52 78.7409 193.138 79.1067 192.89H79.0333C79.1005 192.854 79.1696 192.827 79.24 192.81C79.3632 192.73 79.4959 192.689 79.63 192.689C79.7641 192.689 79.8968 192.73 80.02 192.81V192.81C80.4648 192.984 80.8501 193.401 81.1 193.98C81.298 194.497 81.3977 195.085 81.3883 195.681C81.3789 196.277 81.2607 196.858 81.0467 197.36C80.8969 197.811 80.6592 198.184 80.3652 198.428C80.0712 198.673 79.7346 198.777 79.4001 198.729C79.0655 198.68 78.7487 198.48 78.4916 198.155C78.2344 197.83 78.0491 197.396 77.96 196.91C77.8339 196.435 77.7881 195.921 77.8265 195.414C77.8648 194.906 77.9863 194.42 78.18 194V194Z" fill="#455A64"/>
<path d="M78 173.81C77.1467 166.76 73.3333 158.62 68.6667 160.2L54.3933 168.4C53.7096 168.629 53.1084 169.235 52.7094 170.099C52.3104 170.962 52.1428 172.019 52.24 173.06L56.4733 220.27C56.7419 223.253 57.6886 226.005 59.1534 228.062C60.6182 230.119 62.5115 231.354 64.5133 231.56V231.56C65.7584 231.687 67.0071 231.411 68.175 230.751C69.3428 230.091 70.4025 229.063 71.2824 227.735C72.1623 226.408 72.8419 224.812 73.275 223.057C73.7082 221.301 73.885 219.427 73.7933 217.56C73.6267 214.3 73.5133 211.86 73.5133 211.87C73.5133 211.88 79.44 209.29 79.7533 197.24C79.94 191.24 78.98 181.63 78 173.81Z" fill="#936760"/>
<path d="M76.54 184.21C76.5743 184.606 76.5033 185.006 76.3423 185.324C76.1814 185.643 75.9435 185.853 75.68 185.91C75.5529 185.949 75.4218 185.949 75.2946 185.91C75.1674 185.872 75.0467 185.795 74.9397 185.685C74.8327 185.575 74.7416 185.434 74.6718 185.269C74.602 185.105 74.5549 184.922 74.5333 184.73C74.4989 184.335 74.569 183.936 74.7286 183.619C74.8881 183.301 75.1244 183.089 75.3867 183.03C75.5142 182.991 75.6457 182.991 75.7733 183.029C75.9009 183.068 76.022 183.144 76.1296 183.254C76.2371 183.364 76.3288 183.506 76.3993 183.67C76.4698 183.834 76.5177 184.018 76.54 184.21V184.21Z" fill="#263238"/>
<path d="M77.0267 179.07C76.92 179.29 76.0867 178.58 75.0267 178.78C73.9667 178.98 73.2067 179.93 73.0733 179.78C72.94 179.63 73.1067 179.32 73.42 178.88C73.8542 178.315 74.3946 177.965 74.9667 177.88C75.5335 177.772 76.1084 177.941 76.6067 178.36C76.94 178.63 77.0867 179 77.0267 179.07Z" fill="#263238"/>
<path d="M66.88 185.68C66.9144 186.074 66.8443 186.473 66.6847 186.791C66.5252 187.109 66.2889 187.321 66.0267 187.38C65.8991 187.419 65.7677 187.419 65.6401 187.381C65.5124 187.342 65.3913 187.266 65.2838 187.156C65.1762 187.046 65.0845 186.904 65.014 186.74C64.9435 186.576 64.8957 186.392 64.8733 186.2C64.8407 185.806 64.9115 185.408 65.0707 185.091C65.2299 184.774 65.4652 184.562 65.7267 184.5C65.8543 184.46 65.986 184.458 66.114 184.496C66.242 184.534 66.3635 184.611 66.4712 184.721C66.579 184.831 66.6707 184.973 66.741 185.138C66.8112 185.303 66.8585 185.487 66.88 185.68V185.68Z" fill="#263238"/>
<path d="M66.36 181.28C66.2467 181.5 65.4133 180.78 64.3267 180.98C63.24 181.18 62.5067 182.14 62.3733 181.98C62.24 181.82 62.3733 181.52 62.7267 181.08C63.16 180.519 63.6974 180.17 64.2667 180.08C64.8333 179.981 65.4065 180.148 65.9067 180.56C66.2667 180.84 66.4133 181.18 66.36 181.28Z" fill="#263238"/>
<path d="M71.26 192.68C71.8139 192.311 72.3961 192.045 72.9933 191.89C73.2666 191.8 73.52 191.67 73.5467 191.37C73.5365 190.937 73.4389 190.518 73.2667 190.17L72.1933 187.17C70.6933 182.86 69.5733 179.29 69.6933 179.17C69.8133 179.05 71.1133 182.51 72.6133 186.82C72.9733 187.89 73.3267 188.9 73.6533 189.88C73.8672 190.352 73.9639 190.922 73.9266 191.49C73.897 191.643 73.8451 191.784 73.7748 191.903C73.7045 192.023 73.6175 192.117 73.52 192.18C73.3696 192.267 73.213 192.327 73.0533 192.36C72.4666 192.577 71.8643 192.685 71.26 192.68V192.68Z" fill="#263238"/>
<path d="M73.54 211.86C69.8404 212.602 66.0762 211.788 62.6666 209.51C62.6666 209.51 65.8666 217.18 73.6733 214.67L73.54 211.86Z" fill="#6F4C47"/>
<path d="M71.4067 196.59C71.121 196.093 70.7581 195.708 70.35 195.471C69.9419 195.234 69.5011 195.151 69.0667 195.23C68.7837 195.284 68.5139 195.442 68.2813 195.689C68.0488 195.937 67.8605 196.267 67.7333 196.65C67.5906 197.091 67.5412 197.588 67.5914 198.072C67.6417 198.557 67.7894 199.007 68.0148 199.362C68.2401 199.718 68.5324 199.962 68.8526 200.061C69.1728 200.161 69.5056 200.112 69.8067 199.92C70.3897 199.517 70.8996 198.91 71.2933 198.15C71.4238 197.963 71.5241 197.734 71.5867 197.48C71.6195 197.342 71.6269 197.192 71.6082 197.048C71.5894 196.904 71.5451 196.77 71.48 196.66" fill="#6F4C47"/>
<path d="M68.1466 194.38C68.3266 194.38 68.4666 196.1 69.58 197.18C70.6933 198.26 71.9266 197.84 71.9599 198.09C71.9599 198.19 71.7066 198.48 71.1733 198.6C70.4755 198.744 69.7664 198.51 69.1733 197.94C68.6113 197.399 68.2101 196.554 68.0533 195.58C68 194.84 68.0666 194.38 68.1466 194.38Z" fill="#263238"/>
<path d="M66.3067 174.47C66.2333 174.93 65.1333 174.92 63.8733 175.37C62.6133 175.82 61.6267 176.54 61.42 176.17C61.3334 175.99 61.48 175.54 61.86 175.04C62.3701 174.407 62.9734 173.964 63.62 173.75C64.2637 173.512 64.9363 173.512 65.58 173.75C66.0733 174 66.34 174.25 66.3067 174.47Z" fill="#263238"/>
<path d="M76.2 173.52C76.04 173.93 75.26 173.68 74.36 173.82C73.46 173.96 72.7133 174.36 72.5066 174.01C72.4133 173.83 72.5066 173.44 72.8133 173.01C73.2236 172.5 73.7288 172.193 74.26 172.13C74.7906 172.048 75.325 172.219 75.7866 172.62C76.14 173 76.2733 173.33 76.2 173.52Z" fill="#263238"/>
<path d="M62.5933 162.93C58.9674 163.24 55.4157 164.599 52.1333 166.93C51.1147 167.508 50.2459 168.559 49.6533 169.93C49.2781 171.243 49.1579 172.689 49.3066 174.1C49.56 178.55 51.02 183.86 52.3466 187.84L53.9 191.25C55.9 190.3 57.34 182.2 57.0266 178.51C57.9837 177.719 58.7739 176.543 59.3077 175.113C59.8414 173.683 60.0974 172.057 60.0466 170.42C60.8178 169.537 61.447 168.406 61.8878 167.109C62.3286 165.813 62.5697 164.385 62.5933 162.93V162.93Z" fill="#263238"/>
<path d="M56.08 189.2C55.8467 186.67 53.74 186.4 52.3467 187.87C51.5867 188.68 51.0533 190.17 51.2867 192.87C51.9133 200.04 56.58 197.61 56.5733 197.4C56.5667 197.19 56.36 192.16 56.08 189.2Z" fill="#936760"/>
<path d="M54.8733 195C54.8733 195 54.8 195.1 54.6666 195.23C54.4795 195.394 54.2576 195.444 54.0466 195.37C53.7125 195.136 53.4259 194.772 53.2162 194.317C53.0065 193.862 52.8813 193.332 52.8533 192.78C52.7854 192.17 52.8104 191.544 52.9266 190.95C52.951 190.718 53.0129 190.498 53.107 190.309C53.2012 190.121 53.3247 189.97 53.4666 189.87C53.5594 189.812 53.6626 189.805 53.7586 189.848C53.8547 189.892 53.9376 189.985 53.9933 190.11C54.0733 190.3 54.0533 190.45 54.08 190.46C54.1066 190.47 54.1733 190.32 54.08 190.03C54.0399 189.857 53.9594 189.711 53.8533 189.62C53.7105 189.494 53.5404 189.458 53.38 189.52C53.2017 189.627 53.0435 189.798 52.9192 190.017C52.7949 190.237 52.7082 190.499 52.6666 190.78C52.5164 191.439 52.4775 192.143 52.5533 192.83C52.7066 194.27 53.32 195.52 54.04 195.69C54.1724 195.72 54.3077 195.705 54.4358 195.646C54.5639 195.588 54.6815 195.486 54.78 195.35C54.88 195.14 54.8933 195 54.8733 195Z" fill="#6F4C47"/>
<path d="M52.2666 196.87C52.5166 196.397 52.836 196.017 53.2 195.76H53.1266C53.1935 195.723 53.2628 195.696 53.3333 195.68C53.4565 195.6 53.5892 195.559 53.7233 195.559C53.8574 195.559 53.9901 195.6 54.1133 195.68V195.68C54.5568 195.853 54.9402 196.271 55.1866 196.85C55.3847 197.365 55.4845 197.952 55.4751 198.546C55.4657 199.141 55.3475 199.72 55.1333 200.22C54.9615 200.669 54.7076 201.035 54.4016 201.274C54.0956 201.513 53.7503 201.616 53.4066 201.57C53.1007 201.468 52.8173 201.25 52.5838 200.937C52.3503 200.623 52.1745 200.225 52.0733 199.78C51.9428 199.309 51.8922 198.796 51.9259 198.288C51.9597 197.781 52.0767 197.293 52.2666 196.87Z" fill="#455A64"/>
<path d="M48.6133 164.27C49.6067 160.89 51.9467 158.77 54.3867 158.05C55.0943 157.84 55.8123 157.72 56.5333 157.69C56.2516 156.274 56.1476 154.793 56.2267 153.32C56.379 151.198 56.8867 149.168 57.7027 147.42C58.5186 145.671 59.6162 144.261 60.8933 143.32C63.4013 141.673 66.2397 141.565 68.8 143.02C71.3231 144.215 73.4369 146.837 74.6933 150.33C75.9 153.96 75.8067 158.88 74.0667 161.88C72.0667 164.65 69.72 165.88 67.1267 166.63C64.8443 167.385 62.4568 166.874 60.4067 165.19C54.4067 172.62 52.86 184.91 51.86 196.03C49.2333 189.11 48.6667 180.92 48.1533 173.03C48 170.08 47.8133 167 48.6133 164.27Z" fill="#0F3CA1"/>
<path d="M55.7466 165.09C55.6733 164.99 56.0066 164.28 56.4933 163.5C56.98 162.72 57.42 162.18 57.4933 162.28C57.5666 162.38 57.2266 163.08 56.7466 163.86C56.2666 164.64 55.8133 165.18 55.7466 165.09Z" fill="#263238"/>
<path d="M69.6866 161.43C69.6466 161.36 70.16 160.64 70.76 159.24C71.5462 157.416 72.0244 155.333 72.1533 153.17C72.2738 151.007 72.0452 148.832 71.4866 146.83C71.0466 145.3 70.62 144.46 70.6666 144.4C70.7133 144.34 70.8133 144.57 71.0066 144.95C71.2759 145.492 71.5103 146.071 71.7066 146.68C72.3716 148.705 72.6571 150.962 72.5326 153.212C72.4082 155.461 71.8784 157.617 71 159.45C70.7364 160 70.4396 160.512 70.1133 160.98C69.8466 161.3 69.7066 161.45 69.6866 161.43Z" fill="#263238"/>
<path d="M66.6666 155.22C66.8955 154.711 67.1665 154.247 67.4733 153.84C68.1555 152.808 68.7861 151.701 69.36 150.53C69.915 149.352 70.3196 148.029 70.5533 146.63C70.7266 145.56 70.7133 144.86 70.7733 144.85C70.8769 145.457 70.8769 146.093 70.7733 146.7C70.599 148.187 70.2024 149.596 69.6133 150.82C69.0373 152.03 68.3658 153.132 67.6133 154.1C67.3367 154.542 67.0176 154.92 66.6666 155.22V155.22Z" fill="#263238"/>
<g opacity="0.3">
<path opacity="0.3" d="M56.2 154.18C56.2227 156.409 56.6201 158.593 57.3555 160.53C58.0909 162.467 59.1403 164.094 60.4066 165.26L60.32 165.47C59.4367 165.492 58.5661 165.152 57.8023 164.486C57.0385 163.821 56.4106 162.854 55.9864 161.692C55.5622 160.529 55.3579 159.215 55.3955 157.891C55.4332 156.567 55.7113 155.284 56.2 154.18Z" fill="black"/>
</g>
<path d="M50.44 170C51.0026 170.304 51.5414 170.7 52.0467 171.18C52.6034 171.512 53.1352 171.931 53.6333 172.43C53.0164 172.417 52.414 172.147 51.8933 171.65C51.3181 171.308 50.8158 170.737 50.44 170V170Z" fill="white"/>
<path d="M47.4866 177.39C48.204 177.407 48.9195 177.508 49.6266 177.69C50.348 177.705 51.0676 177.799 51.78 177.97C51.0771 178.314 50.3288 178.397 49.6 178.21C48.8617 178.197 48.1364 177.916 47.4866 177.39V177.39Z" fill="white"/>
<path d="M53.44 156.31C53.54 156.31 53.1867 158.31 53.06 160.73C52.9333 163.15 53.06 165.17 52.9467 165.19C52.4669 162.228 52.6399 159.112 53.44 156.31V156.31Z" fill="white"/>
<path d="M55.22 169C55.22 168.85 55.8333 168.91 56.5533 168.88C57.2733 168.85 57.8866 168.76 57.8866 168.88C57.4727 169.182 57.0201 169.347 56.5599 169.363C56.0996 169.378 55.6425 169.244 55.22 168.97V169Z" fill="white"/>
<path d="M50.72 182.71C51.272 183.249 51.7294 183.98 52.0533 184.84C52.4658 185.609 52.7513 186.514 52.8866 187.48C52.4552 186.766 52.0794 185.981 51.7666 185.14C51.3569 184.393 51.0057 183.577 50.72 182.71Z" fill="white"/>
<path d="M63.02 162.31C63.1904 161.335 63.4134 160.381 63.6866 159.46C64.16 157.57 64.74 155.23 65.3866 152.66C66.0333 150.09 66.5666 147.72 67.0266 145.82C67.2182 144.854 67.4635 143.914 67.76 143.01C67.6564 144.005 67.489 144.983 67.26 145.93C66.9 147.72 66.36 150.16 65.7066 152.83C65.0533 155.5 64.4133 157.89 63.9133 159.6C63.6718 160.543 63.3728 161.45 63.02 162.31V162.31Z" fill="white"/>
<path d="M58.8533 148.48C59.1927 147.984 59.5791 147.566 60 147.24C60.9876 146.358 62.017 145.586 63.08 144.93C64.1438 144.275 65.2377 143.737 66.3533 143.32C66.8092 143.106 67.2826 142.988 67.76 142.97C67.76 143.13 65.6733 143.89 63.2133 145.41C60.7533 146.93 58.9067 148.61 58.8533 148.48Z" fill="white"/>
<path d="M72.5599 152.73C73.2593 153.699 73.8027 154.894 74.1492 156.225C74.4956 157.555 74.6361 158.986 74.5599 160.41C74.4533 160.41 74.3866 158.54 73.8333 156.41C73.28 154.28 72.4799 152.83 72.5599 152.73Z" fill="white"/>
<path d="M63.4933 166.72C64.146 166.555 64.7867 166.298 65.4066 165.95C65.9811 165.453 66.5234 164.878 67.0266 164.23C66.7191 165.192 66.1995 165.966 65.5557 166.419C64.9119 166.873 64.1833 166.979 63.4933 166.72Z" fill="white"/>
<path d="M56.8133 159.28C56.7785 158.299 56.9665 157.33 57.3466 156.53C57.8933 155.14 58.68 154.4 58.68 154.53C58.68 154.66 58.14 155.53 57.6333 156.82C57.1266 158.11 56.9133 159.31 56.8133 159.28Z" fill="white"/>
<path d="M78.1133 174.38C78.0533 174.26 78.2666 173.89 78.4733 173.38C78.68 172.87 78.82 172.45 78.9133 172.47C79.0066 172.49 79.02 173.08 78.7666 173.66C78.5133 174.24 78.16 174.5 78.1133 174.38Z" fill="white"/>
<path d="M58.1533 163.11C58.1933 163.17 57.4333 164.44 56.3333 166.63C54.9207 169.502 53.693 172.57 52.6667 175.79C51.6517 179.023 50.848 182.395 50.2667 185.86C49.82 188.53 49.6533 190.22 49.6 190.2C49.5931 189.798 49.6132 189.396 49.66 189C49.7133 188.24 49.84 187.13 50.0333 185.78C51.0652 178.706 53.1632 172.08 56.1667 166.41C56.7467 165.33 57.2333 164.49 57.6 163.94C57.7621 163.632 57.9478 163.353 58.1533 163.11V163.11Z" fill="#263238"/>
<path d="M47.9266 175.31C48.1726 174.366 48.4926 173.47 48.88 172.64C49.75 170.574 50.7477 168.635 51.86 166.85C52.973 165.06 54.1987 163.436 55.52 162C56.0476 161.368 56.6226 160.831 57.2333 160.4C56.7359 161.075 56.2128 161.706 55.6666 162.29C54.4083 163.802 53.2211 165.443 52.1133 167.2C51.0151 168.967 50.0015 170.849 49.08 172.83C48.7251 173.687 48.3401 174.515 47.9266 175.31Z" fill="#263238"/>
<path d="M60.08 144.39C60.08 144.39 59.8733 144.89 59.5667 145.82C59.1483 147.134 58.8908 148.55 58.8067 150C58.6756 152.15 58.9191 154.314 59.5133 156.28C60.2608 158.674 61.4771 160.669 63 162C64.5168 163.352 66.249 164.064 68.0133 164.06C69.4528 164.082 70.8794 163.649 72.2 162.79C73.0873 162.201 73.8805 161.335 74.5267 160.25C74.98 159.47 75.1533 158.94 75.1933 158.98C75.2333 159.02 75.1933 159.12 75.08 159.36C74.9531 159.712 74.8059 160.047 74.64 160.36C74.0139 161.53 73.2182 162.47 72.3133 163.11C70.9661 164.036 69.5019 164.517 68.02 164.52C66.1958 164.552 64.4011 163.829 62.8333 162.43C61.2468 161.037 59.9869 158.941 59.2267 156.43C58.6236 154.383 58.3936 152.134 58.56 149.91C58.6698 148.424 58.9709 146.984 59.4467 145.67C59.5808 145.322 59.73 144.988 59.8933 144.67C60 144.49 60.0667 144.38 60.08 144.39Z" fill="#263238"/>
<path d="M56.4933 151.74C56.5533 151.74 56.4333 152.82 56.4533 154.54C56.454 156.788 56.8128 159.003 57.5 161C58.2101 162.942 59.3213 164.486 60.6667 165.4C61.2409 165.732 61.8316 165.996 62.4333 166.19C62.2663 166.244 62.0936 166.244 61.9267 166.19C61.4696 166.129 61.0207 165.971 60.5933 165.72C59.146 164.85 57.9477 163.248 57.2067 161.19C56.4944 159.134 56.1542 156.835 56.22 154.52C56.2343 153.829 56.2833 153.14 56.3667 152.46C56.3804 152.211 56.4232 151.967 56.4933 151.74V151.74Z" fill="#263238"/>
<g opacity="0.3">
<path opacity="0.3" d="M53 174.14C51.8845 177.881 50.9705 181.75 50.2666 185.71C49.9264 186.979 49.8384 188.368 50.0133 189.71C50.06 189.96 50.2 190.27 50.3733 190.18C50.5466 190.09 50.52 189.93 50.5466 189.76C51.6624 183.134 53.0382 176.613 54.6666 170.23L53 174.14Z" fill="black"/>
</g>
<g opacity="0.3">
<path opacity="0.3" d="M71.3866 145.78C72.72 151.08 72.56 156.89 69.8733 161.29C70.4696 161.092 71.0224 160.67 71.4797 160.063C71.9369 159.456 72.2835 158.684 72.4866 157.82C72.9851 155.834 73.1456 153.693 72.9535 151.591C72.7615 149.489 72.2229 147.491 71.3866 145.78V145.78Z" fill="black"/>
</g>
<path d="M121.473 314.84C109.131 314.387 97.2266 314.427 85.76 314.96L85.8866 314.84L89.8866 258.65L74.7533 220.56L73.8466 219.28C70.6933 221.54 67.7666 222.58 64.32 221.69L55.5266 219.44C51.5266 224.66 44.2533 235.84 44.2533 236.23C44.2533 236.62 54 307.89 54 307.89L59.8133 316.45L43.3666 333.81C43.3666 333.81 43.7 350.94 51.42 355.61C59.14 360.28 93.46 356.75 97.4666 356C97.4666 356 112.46 347.26 114.54 344.59C116.62 341.92 122.067 320.67 121.473 314.84Z" fill="#263238"/>
<path d="M80.3867 322.76C80.5075 322.766 80.6279 322.786 80.7467 322.82L81.7533 323.05C82.6333 323.27 83.9 323.62 85.4533 324.1C88.5733 325.04 92.8533 326.53 97.5533 328.31L109.553 332.98L113.193 334.41L114.18 334.81C114.296 334.853 114.41 334.91 114.52 334.98C114.4 334.978 114.281 334.951 114.167 334.9L113.167 334.59C112.293 334.3 111.047 333.87 109.5 333.31C106.407 332.19 102.167 330.55 97.4533 328.77C92.74 326.99 88.4933 325.45 85.3933 324.43C83.84 323.91 82.58 323.51 81.7133 323.24L80.7133 322.91C80.6007 322.88 80.491 322.83 80.3867 322.76V322.76Z" fill="#455A64"/>
<path d="M77.06 314.53C78.0211 314.396 78.989 314.419 79.9467 314.6C80.9102 314.625 81.8691 314.806 82.8067 315.14C81.8456 315.274 80.8777 315.251 79.92 315.07C78.9565 315.045 77.9976 314.864 77.06 314.53V314.53Z" fill="#455A64"/>
<path d="M76.8867 304.29C76.9667 304.2 77.92 306.11 79.3533 308.09C80.7867 310.07 82.1133 311.37 82.06 311.49C80.9703 310.746 79.9806 309.709 79.14 308.43C78.2284 307.265 77.4649 305.863 76.8867 304.29V304.29Z" fill="#455A64"/>
<path d="M76.06 274.79C76.02 274.72 76.5467 274 77.26 272.66C79.1069 269.132 80.1555 264.813 80.2533 260.33C80.2867 258.62 80.1933 257.56 80.2533 257.55C80.3154 257.787 80.3536 258.036 80.3667 258.29C80.4348 258.952 80.4704 259.62 80.4733 260.29C80.5005 264.882 79.4183 269.333 77.4267 272.82C77.1304 273.341 76.8096 273.828 76.4667 274.28C76.3501 274.481 76.2128 274.654 76.06 274.79Z" fill="#455A64"/>
<path d="M80.3133 221.72C84.5933 225.72 88.82 235.92 89.88 246.79L92.2533 263.63C92.2533 263.63 94.0466 262.18 95.1533 264.23C95.5365 264.933 95.8185 265.747 95.9814 266.621C96.1444 267.496 96.1847 268.411 96.1 269.31L101.027 274.47L93.1533 283.06L87.7666 293C87.7666 293 92.3866 313.36 93.1533 315.36C93.92 317.36 95.44 320.82 95.44 320.82L88.3866 318.82C88.3866 318.82 83.6266 313.68 83.8133 305.1C84 296.52 84.5666 263.66 83.8133 259.37C83.06 255.08 73.8133 219.31 73.8133 219.31L80.3133 221.72Z" fill="#0F3CA1"/>
<path d="M88.5866 292.83C88.5599 292.666 88.5442 292.499 88.54 292.33C88.54 291.95 88.4933 291.48 88.4666 290.9C88.4266 289.66 88.4066 287.9 88.4666 285.63C88.5533 281.17 88.88 275.04 89.0866 268.27C89.2762 262.489 89.2562 256.697 89.0266 250.92C88.9133 248.7 88.82 246.92 88.7133 245.68C88.7133 245.1 88.6466 244.63 88.62 244.25C88.6082 244.084 88.6082 243.916 88.62 243.75C88.6621 243.907 88.689 244.072 88.7 244.24L88.8466 245.66C88.9933 246.88 89.12 248.66 89.2666 250.89C89.5645 256.679 89.6135 262.491 89.4133 268.29C89.2066 275.08 88.8466 281.2 88.7066 285.64C88.6333 287.86 88.62 289.64 88.62 290.9C88.62 291.48 88.62 291.95 88.62 292.33C88.6264 292.498 88.6151 292.667 88.5866 292.83V292.83Z" fill="#263238"/>
<path d="M73.3333 284.27L70 265.18L55.5066 219.44L43.1533 228.39C42.8264 228.572 42.5117 228.8 42.2133 229.07V229.07C40.9875 230.268 39.974 231.895 39.26 233.81C37.5155 238.296 36.8739 243.558 37.4466 248.68L42.2 293.93C43.5192 299.088 45.0787 304.1 46.8666 308.93L39.66 341.48C39.66 341.48 58.04 355.26 64 355.22C69.02 355.22 73.4066 355.14 74.2333 340.46C75.06 325.78 73.3333 284.27 73.3333 284.27Z" fill="#0F3CA1"/>
<path d="M58 292.83C57.96 292.83 58.18 291.93 58.4667 290.46C58.6356 289.593 58.8381 288.742 59.0733 287.91C59.3606 286.849 59.8187 285.911 60.4067 285.18C60.9989 284.472 61.7238 284.06 62.48 284C63.0976 283.959 63.7132 284.13 64.28 284.5C64.6628 284.734 65.0132 285.073 65.3133 285.5C65.52 285.81 65.6067 286.01 65.5933 286.03C65.1672 285.529 64.6987 285.116 64.2 284.8C63.6572 284.497 63.0781 284.367 62.5 284.42C61.7982 284.483 61.1249 284.859 60.5667 285.5C60.0276 286.213 59.6055 287.102 59.3333 288.1C59.0533 288.99 58.86 289.85 58.6667 290.57C58.5135 291.365 58.2892 292.125 58 292.83V292.83Z" fill="#263238"/>
<path d="M54 275.12C54 275.12 54.14 274.99 54.4267 274.87C54.8316 274.714 55.2489 274.644 55.6667 274.66C56.366 274.665 57.0573 274.884 57.6986 275.302C58.3398 275.721 58.9175 276.331 59.3965 277.095C59.8755 277.86 60.2458 278.762 60.4848 279.748C60.7238 280.734 60.8265 281.783 60.7867 282.83C60.7724 283.459 60.6983 284.082 60.5667 284.68C60.4733 285.09 60.3933 285.31 60.3733 285.3C60.4817 284.482 60.5464 283.653 60.5667 282.82C60.5821 280.819 60.0805 278.887 59.1669 277.429C58.2534 275.971 56.9989 275.101 55.6667 275C55.1099 274.984 54.5531 275.024 54 275.12V275.12Z" fill="#263238"/>
<path d="M54 239.09C54.1264 239.531 54.2224 239.99 54.2867 240.46C54.4533 241.35 54.6733 242.64 54.92 244.24C55.4133 247.45 55.98 251.92 56.4 256.9C56.82 261.88 57 266.44 57.0667 269.73C57.0667 271.37 57.0667 272.73 57.0667 273.62C57.0755 274.098 57.0576 274.576 57.0133 275.05C56.9634 274.577 56.9411 274.099 56.9467 273.62C56.9467 272.62 56.88 271.31 56.8333 269.74C56.7267 266.46 56.5067 261.93 56.0933 256.96C55.68 251.99 55.14 247.53 54.7067 244.31C54.4933 242.77 54.3133 241.48 54.1733 240.5C54.0896 240.038 54.0316 239.566 54 239.09V239.09Z" fill="#263238"/>
<path d="M43.2333 230C43.6877 229.803 44.1613 229.725 44.6333 229.77C46.9286 229.798 49.1462 231.021 50.9067 233.23C51.2825 233.654 51.6071 234.172 51.8667 234.76C50.6693 233.241 49.3192 232.016 47.8667 231.13C46.3712 230.392 44.8077 230.011 43.2333 230V230Z" fill="#263238"/>
<path d="M47.4067 310.31C47.4988 310.451 47.5814 310.605 47.6533 310.77L48.32 312.14C49.1828 313.737 50.2477 315.063 51.4533 316.04C53.2747 317.39 55.311 317.951 57.3333 317.66C59.8085 317.266 62.1749 315.927 64.2067 313.77C64.7068 313.243 65.1875 312.675 65.6467 312.07L65.6 312.25C65.6 304.92 65.56 298.4 65.5467 293.65C65.5467 291.34 65.5467 289.46 65.5467 288.1C65.5467 287.48 65.5467 286.99 65.5467 286.6C65.5326 286.427 65.5326 286.253 65.5467 286.08C65.5585 286.253 65.5585 286.427 65.5467 286.6C65.5467 286.99 65.5467 287.48 65.5867 288.1C65.5867 289.46 65.6333 291.34 65.6667 293.64C65.7067 298.4 65.76 304.92 65.82 312.24V312.36L65.7667 312.42C65.2977 313.041 64.8058 313.622 64.2933 314.16C62.2382 316.349 59.8405 317.703 57.3333 318.09C55.2625 318.369 53.1814 317.759 51.3333 316.33C50.1153 315.311 49.0508 313.925 48.2067 312.26C47.9333 311.65 47.74 311.15 47.6 310.82C47.524 310.66 47.4593 310.489 47.4067 310.31V310.31Z" fill="#263238"/>
<g opacity="0.3">
<path opacity="0.3" d="M74.1533 309.06C71.9733 310.43 69.2266 311.72 68.7733 315.2C68.7231 316.37 68.6184 317.532 68.46 318.68C67.8466 321.33 65.62 322.09 63.7533 322.35C60.6066 322.78 57.3533 322.97 54.3466 321.49C51.34 320.01 48.5933 316.56 47.8733 311.94C50.6133 314.48 51.8733 317.38 55.08 318.17C56.86 318.62 60.1866 316.88 61.9 316.03C63.6133 315.18 65.7333 311.71 65.7333 311.71C65.8866 310.82 65.7333 307.86 65.5933 308.76C65.5466 309.06 68.5 306.23 69.9733 305.4C71.7266 304.4 74.1533 302.66 74.1533 302.66" fill="black"/>
</g>
<g opacity="0.3">
<path opacity="0.3" d="M59.8133 286.18C59.34 289.4 57.9733 294.45 57.26 297.57C57.1523 298.127 56.9808 298.651 56.7533 299.12C56.6361 299.353 56.482 299.537 56.305 299.658C56.1281 299.778 55.9338 299.831 55.74 299.81C55.4578 299.695 55.2142 299.426 55.0565 299.056C54.8989 298.687 54.8383 298.243 54.8866 297.81C54.9845 296.958 55.228 296.159 55.5933 295.49L59.8133 286.14" fill="black"/>
</g>
<path d="M48.4866 326.14C48.641 325.593 48.8308 325.071 49.0533 324.58C49.44 323.58 50.0066 322.21 50.6933 320.58L50.7466 320.45H50.8533C52.2533 321.22 53.9466 322.09 55.7866 322.94C58.3 324.11 60.6133 324.99 62.2933 325.6L64.2933 326.31C64.5428 326.37 64.7867 326.474 65.02 326.62C64.7688 326.614 64.5187 326.571 64.2733 326.49C63.7933 326.38 63.1 326.19 62.2733 325.93C60.58 325.4 58.2733 324.56 55.7266 323.39C53.88 322.54 52.1866 321.63 50.7933 320.82L50.9466 320.74C50.24 322.39 49.6133 323.74 49.22 324.69C49.0043 325.205 48.7589 325.69 48.4866 326.14V326.14Z" fill="#263238"/>
<path d="M63.7599 334.69C64.0209 333.405 64.3348 332.146 64.7 330.92C64.9613 329.632 65.2752 328.37 65.6399 327.14C65.4132 329.842 64.7695 332.427 63.7599 334.69V334.69Z" fill="#263238"/>
<path d="M48.5133 326.79C48.5133 326.72 49.3133 327.42 50.6066 328.4C52.288 329.678 54.036 330.748 55.8333 331.6C57.6318 332.454 59.4702 333.106 61.3333 333.55C62.7666 333.89 63.66 334.01 63.66 334.09C63.4499 334.133 63.2368 334.133 63.0266 334.09C62.62 334.09 62.0266 334 61.3066 333.87C59.418 333.519 57.5547 332.91 55.74 332.05C53.9247 331.188 52.1698 330.062 50.5 328.69C49.8333 328.16 49.36 327.69 49.02 327.35C48.8357 327.197 48.6654 327.009 48.5133 326.79V326.79Z" fill="#263238"/>
<g opacity="0.3">
<path opacity="0.3" d="M62.6267 334C62.7063 334.284 62.7114 334.603 62.6409 334.892C62.5705 335.181 62.4296 335.42 62.2467 335.56C61.8722 335.821 61.4568 335.922 61.0466 335.85C56.5753 335.59 52.2709 333.233 48.74 329.11C48.38 328.7 48.0133 327.93 48.32 327.43C48.6267 326.93 49.0333 327.29 49.3667 327.57C53.5484 331.236 58.2028 333.523 63.02 334.28" fill="black"/>
</g>
<path d="M65.7333 286.83L93.18 277.93L98.9133 275.79L103.44 279.89C103.759 280.176 104.031 280.567 104.235 281.032C104.44 281.498 104.571 282.027 104.62 282.58L105.013 286.98L104.46 287.7L105.18 289.7C105.335 290.133 105.401 290.624 105.371 291.112C105.342 291.601 105.217 292.066 105.013 292.45V292.45L100.387 287.24L103.407 293.6C103.122 293.914 102.799 294.139 102.455 294.261C102.111 294.383 101.755 294.399 101.407 294.31C99.9733 294.17 96.3933 286.8 96.3933 286.8L94.0467 286.25L98.9867 294.25C98.9867 294.25 99.2067 294.92 98.1533 295.49C97.1 296.06 91.6267 289.73 91.6267 289.73L65.86 308.56" fill="#936760"/>
<path d="M94.1883 286.023L96.3533 286.53C96.3926 286.542 96.4279 286.574 96.4533 286.62C97.3511 288.456 98.3241 290.206 99.3667 291.86C99.8719 292.709 100.472 293.42 101.14 293.96C101.499 294.082 101.87 294.094 102.232 293.996C102.556 293.909 102.866 293.735 103.148 293.482L102.353 291.81L100.227 287.33C100.214 287.305 100.205 287.276 100.201 287.245C100.196 287.215 100.195 287.183 100.199 287.152C100.203 287.121 100.211 287.092 100.222 287.065C100.234 287.039 100.249 287.017 100.267 287C100.293 286.972 100.324 286.956 100.357 286.956C100.389 286.956 100.42 286.972 100.447 287L100.507 287.068L100.533 287.03L100.602 287.175L104.193 291.22L104.653 291.74L104.88 292L104.911 292.034C105.071 291.647 105.151 291.197 105.14 290.74C105.108 290.205 104.984 289.692 104.78 289.25L104.247 287.77C104.224 287.729 104.212 287.678 104.212 287.625C104.212 287.572 104.224 287.521 104.247 287.48L104.736 286.852C104.62 285.532 104.503 284.232 104.387 282.97C104.362 282.345 104.231 281.74 104.004 281.214C103.777 280.688 103.463 280.26 103.093 279.97L98.7584 275.999L95.3333 277.33C94.1667 277.76 93.02 278.2 91.8933 278.54L85.48 280.6L75 284L68.1733 286.15L66.36 286.7L65.8933 286.84H65.7333L65.8867 286.77L66.3533 286.61L68.1533 285.99L74.9667 283.71L85.4533 280.26L91.86 278.16C92.9867 277.81 94.1267 277.37 95.3 276.93L98.88 275.6C98.8966 275.588 98.9148 275.581 98.9333 275.581C98.9518 275.581 98.9701 275.588 98.9867 275.6L103.367 279.55C103.775 279.878 104.122 280.356 104.373 280.94C104.624 281.543 104.77 282.231 104.8 282.94C104.92 284.27 105.04 285.61 105.167 286.94C105.169 286.977 105.166 287.015 105.157 287.05C105.147 287.085 105.132 287.116 105.113 287.14L104.629 287.77L105.1 289.06C105.323 289.566 105.461 290.146 105.5 290.75C105.514 291.379 105.385 291.996 105.133 292.5V292.55H104.913L104.853 292.48L104.74 292.35L104.513 292.09L104.053 291.57L101.12 288.266L102.66 291.51C102.967 292.15 103.267 292.8 103.553 293.39C103.575 293.429 103.587 293.479 103.587 293.53C103.587 293.581 103.575 293.631 103.553 293.67C103.211 294.07 102.804 294.325 102.373 294.41C102.17 294.454 101.965 294.477 101.76 294.48H101.453C101.343 294.453 101.234 294.416 101.127 294.37C100.407 293.818 99.7621 293.069 99.2267 292.16C98.1889 290.515 97.2214 288.773 96.3299 286.945L94.4908 286.514L94.0467 286.41L94.1859 286.022L94.1867 286.02C94.1872 286.021 94.1877 286.022 94.1883 286.023Z" fill="#6F4C47"/>
<path d="M103.407 293.58C102.997 292.928 102.625 292.225 102.293 291.48C101.627 290.15 100.753 288.3 99.7933 286.23C99.4441 285.214 98.8508 284.435 98.1333 284.05C97.4666 283.77 96.8 283.6 96.2666 283.4C95.6793 283.257 95.1031 283.026 94.5466 282.71C95.1412 282.755 95.7322 282.875 96.3133 283.07C96.86 283.23 97.4933 283.35 98.22 283.64C99.0138 284.034 99.6738 284.877 100.06 285.99C101.02 288.04 101.873 289.92 102.48 291.3C102.837 292.013 103.148 292.777 103.407 293.58Z" fill="#6F4C47"/>
<path d="M104.333 287.81C103.95 287.249 103.593 286.647 103.267 286.01C102.432 284.544 101.542 283.152 100.6 281.84L99.7866 280.73L99.4 280.21L99.2066 279.95C99.2066 279.95 99.14 279.85 99.12 279.85H99.0667C98.4533 279.74 97.84 279.76 97.3533 279.73C96.8166 279.767 96.2788 279.73 95.7466 279.62C96.2755 279.461 96.8141 279.388 97.3533 279.4C97.9393 279.341 98.5273 279.341 99.1133 279.4H99.1866L99.2933 279.47C99.3346 279.506 99.3727 279.55 99.4066 279.6L99.6 279.85L99.9933 280.36L100.813 281.47C101.767 282.796 102.645 284.237 103.44 285.78C103.796 286.395 104.096 287.077 104.333 287.81Z" fill="#6F4C47"/>
<path d="M143.087 302.87L152.7 263.05C152.917 262.26 153.001 261.402 152.944 260.552C152.887 259.702 152.692 258.886 152.375 258.176C152.058 257.466 151.629 256.884 151.126 256.482C150.624 256.08 150.063 255.87 149.493 255.87H121.087C120.362 255.869 119.654 256.209 119.065 256.842C118.475 257.475 118.033 258.37 117.8 259.4L108.713 299.56L92.9067 299.64C92.0467 299.64 91.3 301.37 91.3 302.64H96.5H108.227L143.087 302.87Z" fill="#E0E0E0"/>
<path d="M143.087 302.87H142.847H128.667L112.267 302.82C105.967 302.77 98.9333 302.88 91.3133 302.82H91.1533V302.58C91.169 301.991 91.2763 301.416 91.4667 300.9C91.6544 300.373 91.93 299.929 92.2667 299.61C92.4483 299.443 92.6541 299.343 92.8667 299.32H94.5533H99.1467L108.727 299.27L108.567 299.44L112.68 281.24C113.607 277.16 114.513 273.12 115.413 269.15C115.858 267.15 116.302 265.177 116.747 263.23L117.413 260.31C117.533 259.82 117.62 259.31 117.76 258.85C117.907 258.361 118.098 257.903 118.327 257.49C118.674 256.888 119.105 256.407 119.588 256.077C120.071 255.747 120.596 255.578 121.127 255.58H133.72H147.853H149.5C150.063 255.578 150.618 255.777 151.12 256.16C151.607 256.53 152.032 257.061 152.363 257.712C152.695 258.363 152.924 259.118 153.033 259.92C153.143 260.7 153.131 261.507 153 262.28C152.853 263.03 152.667 263.72 152.5 264.42C152.16 265.81 151.833 267.17 151.507 268.5L145.333 293.73C144.607 296.67 144.047 298.96 143.653 300.53C143.467 301.29 143.32 301.88 143.213 302.29C143.107 302.7 143.06 302.87 143.06 302.87C143.06 302.87 143.1 302.65 143.193 302.25L143.613 300.45C143.987 298.86 144.54 296.55 145.24 293.58C146.66 287.58 148.713 279.03 151.24 268.42C151.56 267.1 151.907 265.74 152.213 264.35C152.38 263.66 152.567 262.95 152.7 262.26C152.807 261.542 152.807 260.798 152.7 260.08C152.594 259.339 152.379 258.644 152.071 258.043C151.764 257.443 151.37 256.953 150.92 256.61C150.007 255.86 148.887 256.14 147.78 256.09H133.647H122.113C121.461 256.029 120.807 256.096 120.167 256.29C119.547 256.564 118.993 257.102 118.573 257.84C118.363 258.206 118.19 258.617 118.06 259.06C117.94 259.5 117.84 260.06 117.727 260.49L117.06 263.41C116.616 265.37 116.171 267.343 115.727 269.33C114.838 273.33 113.927 277.357 112.993 281.41C111.587 287.65 110.2 293.77 108.873 299.62L108.84 299.79H108.713H99.14H94.5467H92.8667C92.7077 299.805 92.5539 299.881 92.42 300.01C92.1385 300.293 91.905 300.671 91.7384 301.114C91.5717 301.557 91.4763 302.052 91.46 302.56L91.3 302.32C98.9133 302.32 105.967 302.27 112.233 302.32L128.58 302.49L139.247 302.64L142.087 302.69H142.827L143.087 302.87Z" fill="#263238"/>
<path d="M121.333 256C121.325 256.165 121.301 256.327 121.26 256.48L120.967 257.85C120.68 259.1 120.3 260.79 119.833 262.85C118.86 267.06 117.493 272.85 115.967 279.24C114.44 285.63 113.04 291.4 112.007 295.58L110.767 300.51L110.42 301.84C110.381 301.997 110.331 302.147 110.273 302.29C110.281 302.121 110.308 301.955 110.353 301.8L110.64 300.44C110.927 299.18 111.307 297.5 111.773 295.44C112.747 291.24 114.113 285.44 115.64 279.05C117.167 272.66 118.567 266.89 119.6 262.72L120.84 257.79C120.98 257.26 121.093 256.79 121.193 256.46C121.227 256.298 121.274 256.144 121.333 256V256Z" fill="#263238"/>
<path d="M85.3867 309.92H174.88C175.522 309.92 176.137 309.538 176.591 308.857C177.045 308.176 177.3 307.253 177.3 306.29V306.29C177.298 305.328 177.043 304.406 176.589 303.726C176.136 303.046 175.521 302.663 174.88 302.66H85.3867C84.7449 302.66 84.1293 303.042 83.6755 303.723C83.2216 304.404 82.9667 305.327 82.9667 306.29C82.9658 306.767 83.0278 307.24 83.1491 307.681C83.2704 308.122 83.4486 308.522 83.6735 308.86C83.8984 309.197 84.1655 309.464 84.4596 309.646C84.7536 309.828 85.0686 309.921 85.3867 309.92V309.92Z" fill="#455A64"/>
<path d="M127.02 458.59H134.827V308.56H127.02L127.02 458.59Z" fill="#455A64"/>
<path d="M157.267 458.59H104.16C104.507 458.59 127.027 449.64 127.027 449.64H134.833L157.267 458.59Z" fill="#455A64"/>
<path d="M85.1533 309.61C85.1533 309.48 105.387 309.38 130.347 309.38C155.307 309.38 175.547 309.48 175.547 309.61C175.547 309.74 155.313 309.85 130.347 309.85C105.38 309.85 85.1533 309.74 85.1533 309.61Z" fill="#263238"/>
<path d="M254.402 114.938H257.918V126.75C257.918 127.836 257.676 128.797 257.191 129.633C256.715 130.461 256.039 131.102 255.164 131.555C254.289 132.008 253.301 132.234 252.199 132.234C250.395 132.234 248.988 131.777 247.98 130.863C246.973 129.941 246.469 128.641 246.469 126.961H250.008C250.008 127.797 250.184 128.414 250.535 128.812C250.887 129.211 251.441 129.41 252.199 129.41C252.871 129.41 253.406 129.18 253.805 128.719C254.203 128.258 254.402 127.602 254.402 126.75V114.938ZM274.945 123.855C274.945 125.535 274.648 127.008 274.055 128.273C273.461 129.539 272.609 130.516 271.5 131.203C270.398 131.891 269.133 132.234 267.703 132.234C266.289 132.234 265.027 131.895 263.918 131.215C262.809 130.535 261.949 129.566 261.34 128.309C260.73 127.043 260.422 125.59 260.414 123.949V123.105C260.414 121.426 260.715 119.949 261.316 118.676C261.926 117.395 262.781 116.414 263.883 115.734C264.992 115.047 266.258 114.703 267.68 114.703C269.102 114.703 270.363 115.047 271.465 115.734C272.574 116.414 273.43 117.395 274.031 118.676C274.641 119.949 274.945 121.422 274.945 123.094V123.855ZM271.383 123.082C271.383 121.293 271.062 119.934 270.422 119.004C269.781 118.074 268.867 117.609 267.68 117.609C266.5 117.609 265.59 118.07 264.949 118.992C264.309 119.906 263.984 121.25 263.977 123.023V123.855C263.977 125.598 264.297 126.949 264.938 127.91C265.578 128.871 266.5 129.352 267.703 129.352C268.883 129.352 269.789 128.891 270.422 127.969C271.055 127.039 271.375 125.688 271.383 123.914V123.082ZM277.5 132V114.938H283.477C285.547 114.938 287.117 115.336 288.188 116.133C289.258 116.922 289.793 118.082 289.793 119.613C289.793 120.449 289.578 121.188 289.148 121.828C288.719 122.461 288.121 122.926 287.355 123.223C288.23 123.441 288.918 123.883 289.418 124.547C289.926 125.211 290.18 126.023 290.18 126.984C290.18 128.625 289.656 129.867 288.609 130.711C287.562 131.555 286.07 131.984 284.133 132H277.5ZM281.016 124.57V129.176H284.027C284.855 129.176 285.5 128.98 285.961 128.59C286.43 128.191 286.664 127.645 286.664 126.949C286.664 125.387 285.855 124.594 284.238 124.57H281.016ZM281.016 122.086H283.617C285.391 122.055 286.277 121.348 286.277 119.965C286.277 119.191 286.051 118.637 285.598 118.301C285.152 117.957 284.445 117.785 283.477 117.785H281.016V122.086Z" fill="black"/>
<path d="M250.039 370.988V377H246.523V359.938H253.18C254.461 359.938 255.586 360.172 256.555 360.641C257.531 361.109 258.281 361.777 258.805 362.645C259.328 363.504 259.59 364.484 259.59 365.586C259.59 367.258 259.016 368.578 257.867 369.547C256.727 370.508 255.145 370.988 253.121 370.988H250.039ZM250.039 368.141H253.18C254.109 368.141 254.816 367.922 255.301 367.484C255.793 367.047 256.039 366.422 256.039 365.609C256.039 364.773 255.793 364.098 255.301 363.582C254.809 363.066 254.129 362.801 253.262 362.785H250.039V368.141ZM276.031 368.855C276.031 370.535 275.734 372.008 275.141 373.273C274.547 374.539 273.695 375.516 272.586 376.203C271.484 376.891 270.219 377.234 268.789 377.234C267.375 377.234 266.113 376.895 265.004 376.215C263.895 375.535 263.035 374.566 262.426 373.309C261.816 372.043 261.508 370.59 261.5 368.949V368.105C261.5 366.426 261.801 364.949 262.402 363.676C263.012 362.395 263.867 361.414 264.969 360.734C266.078 360.047 267.344 359.703 268.766 359.703C270.188 359.703 271.449 360.047 272.551 360.734C273.66 361.414 274.516 362.395 275.117 363.676C275.727 364.949 276.031 366.422 276.031 368.094V368.855ZM272.469 368.082C272.469 366.293 272.148 364.934 271.508 364.004C270.867 363.074 269.953 362.609 268.766 362.609C267.586 362.609 266.676 363.07 266.035 363.992C265.395 364.906 265.07 366.25 265.062 368.023V368.855C265.062 370.598 265.383 371.949 266.023 372.91C266.664 373.871 267.586 374.352 268.789 374.352C269.969 374.352 270.875 373.891 271.508 372.969C272.141 372.039 272.461 370.688 272.469 368.914V368.082ZM287.434 372.523C287.434 371.859 287.199 371.352 286.73 371C286.262 370.641 285.418 370.266 284.199 369.875C282.98 369.477 282.016 369.086 281.305 368.703C279.367 367.656 278.398 366.246 278.398 364.473C278.398 363.551 278.656 362.73 279.172 362.012C279.695 361.285 280.441 360.719 281.41 360.312C282.387 359.906 283.48 359.703 284.691 359.703C285.91 359.703 286.996 359.926 287.949 360.371C288.902 360.809 289.641 361.43 290.164 362.234C290.695 363.039 290.961 363.953 290.961 364.977H287.445C287.445 364.195 287.199 363.59 286.707 363.16C286.215 362.723 285.523 362.504 284.633 362.504C283.773 362.504 283.105 362.688 282.629 363.055C282.152 363.414 281.914 363.891 281.914 364.484C281.914 365.039 282.191 365.504 282.746 365.879C283.309 366.254 284.133 366.605 285.219 366.934C287.219 367.535 288.676 368.281 289.59 369.172C290.504 370.062 290.961 371.172 290.961 372.5C290.961 373.977 290.402 375.137 289.285 375.98C288.168 376.816 286.664 377.234 284.773 377.234C283.461 377.234 282.266 376.996 281.188 376.52C280.109 376.035 279.285 375.375 278.715 374.539C278.152 373.703 277.871 372.734 277.871 371.633H281.398C281.398 373.516 282.523 374.457 284.773 374.457C285.609 374.457 286.262 374.289 286.73 373.953C287.199 373.609 287.434 373.133 287.434 372.523ZM306.195 362.785H300.969V377H297.453V362.785H292.297V359.938H306.195V362.785Z" fill="white"/>
</svg>
